<?xml version="1.0" encoding="UTF-8" standalone="no"?>
<svg
   width="100%"
   height="100%"
   viewBox="0 0 2000 2000"
   version="1.1"
   xml:space="preserve"
   style="fill-rule:evenodd;clip-rule:evenodd;stroke-linecap:round;stroke-linejoin:round;stroke-miterlimit:1.5;"
   id="svg11"
   sodipodi:docname="section77logotextaspath.svg"
   inkscape:version="1.3.2 (091e20ef0f, 2023-11-25, custom)"
   xmlns:inkscape="http://www.inkscape.org/namespaces/inkscape"
   xmlns:sodipodi="http://sodipodi.sourceforge.net/DTD/sodipodi-0.dtd"
   xmlns="http://www.w3.org/2000/svg"
   xmlns:svg="http://www.w3.org/2000/svg"><defs
   id="defs11" /><sodipodi:namedview
   id="namedview11"
   pagecolor="#ffffff"
   bordercolor="#999999"
   borderopacity="1"
   inkscape:showpageshadow="0"
   inkscape:pageopacity="0"
   inkscape:pagecheckerboard="0"
   inkscape:deskcolor="#d1d1d1"
   showguides="true"
   inkscape:zoom="0.28303"
   inkscape:cx="1194.2197"
   inkscape:cy="908.03094"
   inkscape:window-width="1680"
   inkscape:window-height="1360"
   inkscape:window-x="1730"
   inkscape:window-y="1490"
   inkscape:window-maximized="1"
   inkscape:current-layer="g11" />
    <g
   transform="matrix(1,0,0,1,10,102.141)"
   id="g9">
        <g
   transform="matrix(1,0,0,1,-80,200)"
   id="g1">
            <path
   d="M500,300L500,420L320,420L320,1200L500,1200M500,1200L500,1320L200,1320L200,300L500,300"
   style="stroke:black;stroke-width:1px;"
   id="path1" />
        </g>
        <g
   transform="matrix(-1,0,0,1,2060,200)"
   id="g2">
            <path
   d="M500,300L500,420L320,420L320,1200L500,1200M500,1200L500,1320L200,1320L200,300L500,300"
   style="stroke:black;stroke-width:1px;"
   id="path2" />
        </g>
        <g
   transform="matrix(1,0,-0.312999,1,-16.1003,200)"
   id="g3">
            <path
   d="M590,360L650,300L990,300L1050,360L990,420L650,420L590,360Z"
   style="stroke:black;stroke-width:1.17px;"
   id="path3" />
        </g>
        <g
   transform="matrix(1,0,-0.312999,1,522.68,200)"
   id="g4">
            <path
   d="M590,360L650,300L990,300L1050,360L990,420L650,420L590,360Z"
   style="stroke:black;stroke-width:1.17px;"
   id="path4" />
        </g>
        <g
   transform="matrix(0.312999,-1,1,6.12323e-17,246.311,1630)"
   id="g5">
            <path
   d="M590,360L650,300L990,300L1050,360L990,420L650,420L590,360Z"
   style="stroke:black;stroke-width:0.86px;"
   id="path5" />
        </g>
        <g
   transform="matrix(0.312999,-1,1,6.12323e-17,785.091,1630)"
   id="g6">
            <path
   d="M590,360L650,300L990,300L1050,360L990,420L650,420L590,360Z"
   style="stroke:black;stroke-width:0.86px;"
   id="path6" />
        </g>
        <g
   transform="matrix(0.312999,-1,1,6.12323e-17,96.0717,2110)"
   id="g7">
            <path
   d="M590,360L650,300L990,300L1050,360L990,420L650,420L590,360Z"
   style="stroke:black;stroke-width:0.86px;"
   id="path7" />
        </g>
        <g
   transform="matrix(0.312999,-1,1,6.12323e-17,634.852,2110)"
   id="g8">
            <path
   d="M590,360L650,300L990,300L1050,360L990,420L650,420L590,360Z"
   style="stroke:black;stroke-width:0.86px;"
   id="path8" />
        </g>
    </g>
    <g
   transform="matrix(1.05874,0,0,1.05874,-89.5759,90.3964)"
   id="g11">
        <g
   transform="matrix(298.811,0,0,298.811,1865.79,407.142)"
   id="g10">
        </g>
        <path
   style="font-size:330.915px;font-family:Petitinho;-inkscape-font-specification:Petitinho;stroke-width:1.10744"
   d="m 428.38441,407.142 q 3.97098,0 6.94922,-2.97824 2.97823,-2.97823 2.97823,-6.94921 v -121.1149 q 0,-3.97098 -2.97823,-6.94921 -2.97824,-2.97824 -6.94922,-2.97824 H 256.63952 v -40.37163 h 171.74489 q 3.97098,0 6.94922,-2.97823 2.97823,-2.97824 2.97823,-6.94922 v -30.44418 q 0,-3.97098 -2.97823,-6.94921 -2.97824,-2.97824 -6.94922,-2.97824 h -211.7856 q -4.3019,0 -7.28014,2.97824 -2.64732,2.97823 -2.64732,6.94921 v 121.1149 q 0,3.97098 2.64732,6.94921 2.97824,2.97824 7.28014,2.97824 h 171.41397 v 40.37163 H 216.59881 q -4.3019,0 -7.28014,2.97823 -2.64732,2.97824 -2.64732,6.94922 v 30.44418 q 0,3.97098 2.64732,6.94921 2.97824,2.97824 7.28014,2.97824 z m 268.37235,0 q 3.97098,0 6.94921,-2.97824 2.97824,-2.97823 2.97824,-6.94921 v -30.44418 q 0,-3.97098 -2.97824,-6.94922 -2.97823,-2.97823 -6.94921,-2.97823 H 525.01187 v -40.37163 h 171.74489 q 3.97098,0 6.94921,-2.97824 2.97824,-2.97823 2.97824,-6.94921 v -30.44419 q 0,-3.97098 -2.97824,-6.94921 -2.97823,-2.97824 -6.94921,-2.97824 H 525.01187 v -40.37163 h 171.74489 q 3.97098,0 6.94921,-2.97823 2.97824,-2.97824 2.97824,-6.94922 v -30.44418 q 0,-3.97098 -2.97824,-6.94921 -2.97823,-2.97824 -6.94921,-2.97824 H 484.97115 q -4.30189,0 -7.28013,2.97824 -2.64732,2.97823 -2.64732,6.94921 v 211.78561 q 0,3.97098 2.64732,6.94921 2.97824,2.97824 7.28013,2.97824 z m 268.37234,0 q 3.97098,0 6.94922,-2.97824 2.97823,-2.97823 2.97823,-6.94921 v -30.44418 q 0,-3.97098 -2.97823,-6.94922 -2.97824,-2.97823 -6.94922,-2.97823 H 793.38421 V 225.80057 H 965.1291 q 3.97098,0 6.94922,-2.97823 2.97823,-2.97824 2.97823,-6.94922 v -30.44418 q 0,-3.97098 -2.97823,-6.94921 -2.97824,-2.97824 -6.94922,-2.97824 H 753.3435 q -4.3019,0 -7.28014,2.97824 -2.64732,2.97823 -2.64732,6.94921 v 211.78561 q 0,3.97098 2.64732,6.94921 2.97824,2.97824 7.28014,2.97824 z m 268.3724,-181.34143 q 3.971,0 6.9492,-2.97823 2.9782,-2.97824 2.9782,-6.94922 v -30.44418 q 0,-3.97098 -2.9782,-6.94921 -2.9782,-2.97824 -6.9492,-2.97824 h -211.7856 q -4.3019,0 -7.2802,2.97824 -2.6473,2.97823 -2.6473,6.94921 v 30.44418 q 0,3.97098 2.6473,6.94922 2.9783,2.97823 7.2802,2.97823 h 80.7432 v 171.41398 q 0,3.97098 2.9783,6.94921 2.9782,2.97824 6.9492,2.97824 h 30.1132 q 4.3019,0 7.2802,-2.97824 2.9782,-2.97823 2.9782,-6.94921 V 225.80057 Z m 87.6927,181.34143 q 2.6473,0 4.6328,-2.97824 1.9855,-2.97823 1.9855,-6.94921 V 185.42894 q 0,-3.97098 -1.9855,-6.94921 -1.9855,-2.97824 -4.6328,-2.97824 h -39.7098 q -2.6473,0 -4.6328,2.97824 -1.9855,2.97823 -1.9855,6.94921 v 211.78561 q 0,3.97098 1.9855,6.94921 1.9855,2.97824 4.6328,2.97824 z m 252.1571,0 q 3.971,0 6.9492,-2.97824 2.9783,-2.97823 2.9783,-6.94921 V 185.42894 q 0,-3.97098 -2.9783,-6.94921 -2.9782,-2.97824 -6.9492,-2.97824 h -211.7856 q -4.3019,0 -7.2801,2.97824 -2.6473,2.97823 -2.6473,6.94921 v 211.78561 q 0,3.97098 2.6473,6.94921 2.9782,2.97824 7.2801,2.97824 z M 1401.6064,225.80057 h 131.3733 V 356.84292 H 1401.6064 Z M 1841.7236,407.142 q 3.971,0 6.9493,-2.97824 2.9782,-2.97823 2.9782,-6.94921 V 185.42894 q 0,-3.97098 -2.9782,-6.94921 -2.9783,-2.97824 -6.9493,-2.97824 H 1629.938 q -4.3019,0 -7.2801,2.97824 -2.6473,2.97823 -2.6473,6.94921 v 211.78561 q 0,3.97098 2.6473,6.94921 2.9782,2.97824 7.2801,2.97824 h 30.1133 q 4.3019,0 6.9492,-2.97824 2.9783,-2.97823 2.9783,-6.94921 V 225.80057 h 131.3732 v 171.41398 q 0,3.97098 2.9782,6.94921 2.9783,2.97824 6.9493,2.97824 z"
   id="text10"
   aria-label="SECTION" />
    </g>
</svg>
