<?xml version="1.0" encoding="UTF-8" standalone="no"?>
<svg
   width="100%"
   height="100%"
   viewBox="0 0 2000 2000"
   version="1.1"
   xml:space="preserve"
   style="fill-rule:evenodd;clip-rule:evenodd;stroke-linecap:round;stroke-linejoin:round;stroke-miterlimit:1.5;"
   id="svg11"
   sodipodi:docname="logoNoText.svg"
   inkscape:version="1.3.2 (091e20ef0f, 2023-11-25, custom)"
   inkscape:export-filename="logoNoText-inverted.png"
   inkscape:export-xdpi="96"
   inkscape:export-ydpi="96"
   xmlns:inkscape="http://www.inkscape.org/namespaces/inkscape"
   xmlns:sodipodi="http://sodipodi.sourceforge.net/DTD/sodipodi-0.dtd"
   xmlns="http://www.w3.org/2000/svg"
   xmlns:svg="http://www.w3.org/2000/svg"><defs
   id="defs11" /><sodipodi:namedview
   id="namedview11"
   pagecolor="#ffffff"
   bordercolor="#999999"
   borderopacity="1"
   inkscape:showpageshadow="0"
   inkscape:pageopacity="0"
   inkscape:pagecheckerboard="0"
   inkscape:deskcolor="#d1d1d1"
   showguides="true"
   inkscape:zoom="0.3126412"
   inkscape:cx="988.35343"
   inkscape:cy="1768.8008"
   inkscape:window-width="1680"
   inkscape:window-height="1360"
   inkscape:window-x="1730"
   inkscape:window-y="1490"
   inkscape:window-maximized="1"
   inkscape:current-layer="svg11"
   showgrid="false"
   inkscape:export-bgcolor="#ffffff00" />
    <g
   transform="matrix(318.18122,0,0,317.91357,1891.4011,406.41793)"
   id="g10"
   style="clip-rule:evenodd;display:inline;fill:#000000;fill-rule:evenodd;stroke-width:0;stroke-linecap:round;stroke-linejoin:round;stroke-miterlimit:1.5;stroke-dasharray:none"
   inkscape:label="secondSeven">
        <g
   transform="matrix(0.00316092,0,-9.8936615e-4,0.00316092,-4.2771434,-0.69323155)"
   id="g4"
   style="clip-rule:evenodd;fill:#000000;fill-rule:evenodd;stroke-width:0;stroke-linecap:round;stroke-linejoin:round;stroke-miterlimit:1.5;stroke-dasharray:none"
   inkscape:label="high">
            <path
   d="m 590,360 60,-60 h 340 l 60,60 -60,60 H 650 Z"
   style="fill:#000000;stroke:#000000;stroke-width:0;stroke-dasharray:none"
   id="path4" />
        </g><g
   transform="matrix(9.8936615e-4,-0.00316092,0.00316092,0,-3.4476821,3.8268902)"
   id="g6"
   style="clip-rule:evenodd;fill:#000000;fill-rule:evenodd;stroke-width:0;stroke-linecap:round;stroke-linejoin:round;stroke-miterlimit:1.5;stroke-dasharray:none"
   inkscape:label="mid">
            <path
   d="m 590,360 60,-60 h 340 l 60,60 -60,60 H 650 Z"
   style="fill:#000000;stroke:#000000;stroke-width:0;stroke-dasharray:none"
   id="path6" />
        </g><g
   transform="matrix(9.8936615e-4,-0.00316092,0.00316092,0,-3.9225762,5.3441339)"
   id="g8"
   style="clip-rule:evenodd;fill:#000000;fill-rule:evenodd;stroke-width:0;stroke-linecap:round;stroke-linejoin:round;stroke-miterlimit:1.5;stroke-dasharray:none"
   inkscape:label="low">
            <path
   d="m 590,360 60,-60 h 340 l 60,60 -60,60 H 650 Z"
   style="fill:#000000;stroke:#000000;stroke-width:0;stroke-dasharray:none"
   id="path8" />
        </g></g><g
   transform="matrix(1.0057454,0,0,1.0048993,-75.64908,186.03021)"
   id="g1"
   inkscape:label="leftBracket"
   style="clip-rule:evenodd;display:inline;fill:#000000;fill-rule:evenodd;stroke-width:0;stroke-linecap:round;stroke-linejoin:round;stroke-miterlimit:1.5;stroke-dasharray:none">
            <path
   d="M 500,300 V 420 H 320 v 780 h 180 m 0,0 v 120 H 200 V 300 h 300"
   style="fill:#000000;stroke:#000000;stroke-width:0;stroke-dasharray:none"
   id="path1" />
        </g><g
   transform="matrix(-1.0057454,0,0,1.0048993,2076.649,186.03021)"
   id="g2"
   inkscape:label="rightBracket"
   style="clip-rule:evenodd;display:inline;fill:#000000;fill-rule:evenodd;stroke-width:0;stroke-linecap:round;stroke-linejoin:round;stroke-miterlimit:1.5;stroke-dasharray:none">
            <path
   d="M 500,300 V 420 H 320 v 780 h 180 m 0,0 v 120 H 200 V 300 h 300"
   style="fill:#000000;stroke:#000000;stroke-width:0;stroke-dasharray:none"
   id="path2" />
        </g><g
   transform="matrix(1.0057468,0,0,1.0049007,4.8106757,-14.94996)"
   id="g9"
   inkscape:label="firstSeven"
   style="fill:#000000;stroke-width:0;stroke-dasharray:none">
        
        
        <g
   transform="matrix(1,0,-0.312999,1,-16.1003,200)"
   id="g3"
   inkscape:label="high"
   style="fill:#000000;stroke-width:0;stroke-dasharray:none">
            <path
   d="m 590,360 60,-60 h 340 l 60,60 -60,60 H 650 Z"
   style="fill:#000000;stroke:#000000;stroke-width:0;stroke-dasharray:none"
   id="path3" />
        </g>
        
        <g
   transform="matrix(0.312999,-1,1,0,246.311,1630)"
   id="g5"
   inkscape:label="mid"
   style="fill:#000000;stroke-width:0;stroke-dasharray:none">
            <path
   d="m 590,360 60,-60 h 340 l 60,60 -60,60 H 650 Z"
   style="fill:#000000;stroke:#000000;stroke-width:0;stroke-dasharray:none"
   id="path5" />
        </g>
        
        <g
   transform="matrix(0.312999,-1,1,0,96.0717,2110)"
   id="g7"
   inkscape:label="low"
   style="fill:#000000;stroke-width:0;stroke-dasharray:none">
            <path
   d="m 590,360 60,-60 h 340 l 60,60 -60,60 H 650 Z"
   style="fill:#000000;stroke:#000000;stroke-width:0;stroke-dasharray:none"
   id="path7" />
        </g>
        
    </g>
    
</svg>
