<?xml version="1.0" encoding="UTF-8" standalone="no"?>
<!DOCTYPE svg PUBLIC "-//W3C//DTD SVG 20010904//EN"
              "http://www.w3.org/TR/2001/REC-SVG-20010904/DTD/svg10.dtd">

<svg xmlns="http://www.w3.org/2000/svg"
     width="15.6667in" height="8.72222in"
     viewBox="0 0 1410 785">
  <path id="Auswahl #4"
        fill="none" stroke="black" stroke-width="1"
        d="M 0.00,0.00
           C 0.00,0.00 1190.00,0.00 1190.00,0.00
             1191.32,8.41 1198.68,19.85 1202.75,28.00
             1202.75,28.00 1231.75,85.00 1231.75,85.00
             1231.75,85.00 1336.75,292.00 1336.75,292.00
             1336.75,292.00 1360.75,339.00 1360.75,339.00
             1366.88,351.26 1366.42,354.98 1378.00,355.00
             1378.00,355.00 1410.00,355.00 1410.00,355.00
             1410.00,355.00 1410.00,370.00 1410.00,370.00
             1410.00,370.00 1163.00,370.00 1163.00,370.00
             1163.00,370.00 1163.00,355.00 1163.00,355.00
             1163.00,355.00 1197.00,355.00 1197.00,355.00
             1197.00,355.00 1179.22,321.00 1179.22,321.00
             1179.22,321.00 1131.78,231.00 1131.78,231.00
             1131.78,231.00 1111.42,192.00 1111.42,192.00
             1111.42,192.00 1093.22,157.00 1093.22,157.00
             1087.86,146.84 1087.89,143.02 1077.00,143.00
             1077.00,143.00 341.00,143.00 341.00,143.00
             338.51,143.00 335.39,142.79 333.17,144.02
             330.97,145.24 326.24,150.88 324.42,153.00
             324.42,153.00 309.87,170.00 309.87,170.00
             309.87,170.00 261.73,226.00 261.73,226.00
             261.73,226.00 238.00,254.00 238.00,254.00
             238.00,254.00 216.40,229.00 216.40,229.00
             216.40,229.00 203.00,211.00 203.00,211.00
             191.98,218.28 186.76,221.93 173.00,222.63
             168.96,222.83 161.88,221.59 158.00,220.33
             120.97,208.30 115.86,158.47 149.00,138.63
             154.46,135.36 160.68,133.53 167.00,133.00
             167.00,133.00 167.00,89.00 167.00,89.00
             167.14,81.51 169.26,82.01 176.00,82.00
             176.00,82.00 389.00,82.00 389.00,82.00
             389.00,82.00 1114.00,82.00 1114.00,82.00
             1115.94,82.00 1119.14,81.88 1120.90,82.60
             1125.10,84.31 1130.13,95.76 1132.25,100.00
             1132.25,100.00 1159.75,153.00 1159.75,153.00
             1159.75,153.00 1204.74,239.00 1204.74,239.00
             1204.74,239.00 1241.14,309.00 1241.14,309.00
             1241.14,309.00 1256.75,339.00 1256.75,339.00
             1262.89,351.26 1262.41,354.98 1274.00,355.00
             1274.00,355.00 1297.00,355.00 1297.00,355.00
             1294.78,347.23 1288.09,336.42 1284.26,329.00
             1284.26,329.00 1261.26,284.00 1261.26,284.00
             1261.26,284.00 1220.74,204.00 1220.74,204.00
             1220.74,204.00 1180.75,126.00 1180.75,126.00
             1180.75,126.00 1154.75,75.00 1154.75,75.00
             1152.71,70.92 1147.98,60.26 1143.90,58.60
             1142.14,57.88 1138.94,58.00 1137.00,58.00
             1137.00,58.00 68.00,58.00 68.00,58.00
             68.00,58.00 68.00,721.00 68.00,721.00
             68.00,721.00 362.00,721.00 362.00,721.00
             362.00,721.00 379.00,722.00 379.00,722.00
             379.00,722.00 571.00,722.00 571.00,722.00
             571.00,722.00 658.00,722.00 658.00,722.00
             658.00,722.00 673.00,723.00 673.00,723.00
             673.00,723.00 859.00,723.00 859.00,723.00
             859.00,723.00 943.00,723.00 943.00,723.00
             943.00,723.00 958.00,724.00 958.00,724.00
             958.00,724.00 978.00,724.00 978.00,724.00
             978.00,724.00 978.00,674.00 978.00,674.00
             978.00,674.00 186.00,674.00 186.00,674.00
             183.76,674.00 180.21,673.79 178.30,675.02
             175.91,676.56 175.23,680.44 174.30,683.00
             172.72,687.37 170.36,691.35 167.48,695.00
             159.49,705.15 146.85,711.18 134.00,711.91
             130.31,712.12 124.65,711.16 121.00,710.34
             83.16,701.81 75.28,650.18 107.00,629.10
             115.93,623.17 124.59,621.88 135.00,622.00
             154.34,622.23 175.03,639.15 176.00,659.00
             176.00,659.00 978.00,659.00 978.00,659.00
             978.00,659.00 978.00,228.00 978.00,228.00
             978.00,228.00 653.00,228.00 653.00,228.00
             653.00,228.00 653.00,439.00 653.00,439.00
             653.00,441.19 652.78,444.73 654.02,446.57
             655.48,448.73 659.61,449.64 662.00,450.63
             666.39,452.43 670.45,455.03 674.00,458.18
             685.37,468.30 690.93,483.96 688.56,499.00
             687.48,505.87 685.54,511.21 681.64,517.00
             661.07,547.52 614.50,542.28 601.88,508.00
             599.76,502.25 598.88,497.11 599.01,491.00
             599.31,478.02 605.67,464.50 616.00,456.53
             619.18,454.07 625.20,450.91 629.00,449.55
             631.63,448.60 635.37,448.19 636.98,445.70
             638.21,443.79 638.00,440.24 638.00,438.00
             638.00,438.00 638.00,228.00 638.00,228.00
             638.00,228.00 407.00,228.00 407.00,228.00
             407.00,228.00 407.00,424.00 407.00,424.00
             407.00,424.00 444.00,424.00 444.00,424.00
             444.00,424.00 444.00,440.00 444.00,440.00
             444.21,451.04 449.78,446.63 462.00,454.55
             471.26,460.54 477.95,470.27 480.50,481.00
             482.88,491.03 482.21,500.49 478.13,510.00
             474.68,518.02 469.39,524.83 462.00,529.56
             455.38,533.79 447.90,536.62 440.00,536.96
             421.75,537.76 404.29,529.02 396.32,512.00
             386.88,491.83 392.60,467.97 411.00,455.04
             416.34,451.29 422.47,448.59 429.00,448.00
             429.00,448.00 429.00,440.00 429.00,440.00
             429.00,440.00 392.00,440.00 392.00,440.00
             392.00,440.00 392.00,212.00 392.00,212.00
             392.00,212.00 993.00,212.00 993.00,212.00
             993.00,212.00 993.00,739.00 993.00,739.00
             993.00,739.00 898.00,739.00 898.00,739.00
             898.00,739.00 883.00,738.00 883.00,738.00
             883.00,738.00 698.00,738.00 698.00,738.00
             698.00,738.00 614.00,738.00 614.00,738.00
             614.00,738.00 599.00,737.00 599.00,737.00
             599.00,737.00 321.00,737.00 321.00,737.00
             321.00,737.00 304.00,736.00 304.00,736.00
             304.00,736.00 114.00,736.00 114.00,736.00
             114.00,736.00 61.00,736.00 61.00,736.00
             52.36,735.98 52.02,735.64 52.00,727.00
             52.00,727.00 52.00,43.00 52.00,43.00
             52.00,43.00 1148.00,43.00 1148.00,43.00
             1150.13,43.00 1153.58,42.75 1155.37,43.99
             1157.57,45.53 1163.55,58.67 1165.42,62.00
             1165.42,62.00 1184.25,99.00 1184.25,99.00
             1184.25,99.00 1197.25,124.00 1197.25,124.00
             1197.25,124.00 1237.74,203.00 1237.74,203.00
             1237.74,203.00 1279.26,285.00 1279.26,285.00
             1279.26,285.00 1287.75,301.00 1287.75,301.00
             1287.75,301.00 1307.74,340.00 1307.74,340.00
             1314.92,353.92 1313.49,354.98 1324.00,355.00
             1324.00,355.00 1351.00,355.00 1351.00,355.00
             1351.00,355.00 1330.26,314.00 1330.26,314.00
             1330.26,314.00 1300.26,255.00 1300.26,255.00
             1300.26,255.00 1275.74,206.00 1275.74,206.00
             1275.74,206.00 1219.25,95.00 1219.25,95.00
             1219.25,95.00 1188.25,34.00 1188.25,34.00
             1188.25,34.00 1177.61,16.02 1177.61,16.02
             1177.61,16.02 1170.00,15.00 1170.00,15.00
             1170.00,15.00 15.00,15.00 15.00,15.00
             15.00,15.00 15.00,761.00 15.00,761.00
             15.00,761.00 1022.00,761.00 1022.00,761.00
             1022.00,761.00 1022.00,184.00 1022.00,184.00
             1022.00,184.00 376.00,184.00 376.00,184.00
             364.78,184.02 362.72,189.28 355.00,197.00
             355.00,197.00 323.00,230.00 323.00,230.00
             323.00,230.00 287.04,266.00 287.04,266.00
             287.04,266.00 277.99,276.00 277.99,276.00
             277.99,276.00 236.01,318.00 236.01,318.00
             236.01,318.00 225.00,330.00 225.00,330.00
             225.00,330.00 192.00,363.00 192.00,363.00
             188.23,366.77 175.96,378.95 173.49,382.72
             171.35,385.97 173.71,388.74 174.94,392.00
             176.73,396.76 178.12,403.92 177.96,409.00
             177.34,428.29 164.49,445.53 146.00,451.23
             140.38,452.96 135.79,453.06 130.00,453.00
             124.15,452.93 118.33,451.55 113.00,449.10
             74.97,431.64 79.90,374.79 119.00,364.16
             122.90,363.10 130.02,361.86 134.00,362.09
             139.96,362.43 146.58,364.21 152.00,366.67
             154.93,368.00 158.85,371.20 162.00,369.99
             164.51,369.02 172.60,360.40 175.00,358.00
             175.00,358.00 204.00,328.00 204.00,328.00
             204.00,328.00 234.96,297.00 234.96,297.00
             234.96,297.00 244.01,287.00 244.01,287.00
             244.01,287.00 287.99,243.00 287.99,243.00
             287.99,243.00 309.00,221.00 309.00,221.00
             309.00,221.00 343.72,186.00 343.72,186.00
             347.32,181.91 357.41,170.29 362.00,168.60
             363.94,167.88 366.91,168.00 369.00,168.00
             369.00,168.00 1037.00,168.00 1037.00,168.00
             1037.00,168.00 1037.00,776.00 1037.00,776.00
             1037.00,776.00 0.00,776.00 0.00,776.00
             0.00,776.00 0.00,0.00 0.00,0.00 Z
           M 1247.00,355.00
           C 1244.77,347.17 1239.89,340.24 1236.25,333.00
             1236.25,333.00 1213.31,289.00 1213.31,289.00
             1213.31,289.00 1180.74,226.00 1180.74,226.00
             1180.74,226.00 1144.75,157.00 1144.75,157.00
             1144.75,157.00 1122.25,114.00 1122.25,114.00
             1114.12,97.74 1115.28,98.02 1106.00,98.00
             1106.00,98.00 182.00,98.00 182.00,98.00
             182.00,98.00 182.00,134.00 182.00,134.00
             203.21,138.97 217.24,157.42 217.00,179.00
             216.87,189.69 212.46,195.22 213.11,199.00
             213.60,201.88 217.89,206.61 219.80,209.00
             224.72,215.15 232.04,225.53 238.00,230.00
             238.00,230.00 263.27,201.00 263.27,201.00
             263.27,201.00 304.58,153.00 304.58,153.00
             304.58,153.00 318.42,137.00 318.42,137.00
             320.38,134.70 324.65,129.33 327.09,128.02
             329.36,126.80 332.47,127.01 335.00,127.00
             335.00,127.00 1086.00,127.00 1086.00,127.00
             1097.20,127.02 1095.31,129.05 1102.31,142.00
             1102.31,142.00 1125.42,186.00 1125.42,186.00
             1125.42,186.00 1155.78,244.00 1155.78,244.00
             1155.78,244.00 1193.24,315.00 1193.24,315.00
             1193.24,315.00 1207.25,342.00 1207.25,342.00
             1208.69,344.89 1212.13,352.34 1214.61,354.01
             1216.46,355.25 1219.81,355.00 1222.00,355.00
             1222.00,355.00 1247.00,355.00 1247.00,355.00 Z
           M 166.00,148.33
           C 161.28,149.46 156.84,151.50 153.01,154.53
             140.07,164.76 138.81,185.96 150.18,197.91
             157.41,205.50 167.79,208.38 178.00,206.68
             198.07,203.32 208.66,179.03 197.87,162.00
             190.22,149.93 179.48,146.83 166.00,148.33 Z
           M 205.00,562.00
           C 205.00,562.00 229.00,570.97 229.00,570.97
             244.49,575.88 260.79,578.19 277.00,578.00
             293.24,577.81 314.52,570.15 314.99,551.00
             315.62,524.89 284.59,517.50 265.00,509.80
             232.30,496.95 201.38,477.96 196.85,440.00
             196.36,435.91 195.87,434.39 196.04,430.00
             196.41,420.43 198.71,409.67 202.78,401.00
             224.88,353.88 284.78,345.07 331.00,353.42
             337.48,354.60 346.78,356.90 353.00,359.00
             353.00,359.00 367.00,364.00 367.00,364.00
             367.00,364.00 354.00,413.00 354.00,413.00
             354.00,413.00 334.00,406.15 334.00,406.15
             318.28,401.74 310.20,400.81 294.00,401.00
             276.44,401.21 251.20,413.97 260.36,435.00
             261.52,437.64 263.13,439.87 265.10,441.96
             275.61,453.04 300.58,460.90 315.00,466.86
             351.31,481.87 378.48,503.58 378.00,546.00
             377.91,553.76 376.10,563.63 373.65,571.00
             353.89,630.31 274.25,635.28 223.00,622.63
             209.23,619.23 205.73,617.47 193.00,612.00
             193.00,612.00 205.00,562.00 205.00,562.00 Z
           M 431.00,365.00
           C 431.00,365.00 614.00,365.00 614.00,365.00
             614.00,365.00 614.00,397.00 614.00,397.00
             613.98,407.81 609.97,412.55 605.25,422.00
             605.25,422.00 591.25,451.00 591.25,451.00
             591.25,451.00 536.25,565.00 536.25,565.00
             536.25,565.00 514.75,609.00 514.75,609.00
             507.50,623.54 510.19,623.98 500.00,624.00
             500.00,624.00 443.00,624.00 443.00,624.00
             443.00,624.00 463.69,583.00 463.69,583.00
             463.69,583.00 478.25,554.00 478.25,554.00
             478.25,554.00 485.75,540.00 485.75,540.00
             485.75,540.00 524.74,464.00 524.74,464.00
             524.74,464.00 550.00,415.00 550.00,415.00
             550.00,415.00 431.00,415.00 431.00,415.00
             431.00,415.00 431.00,365.00 431.00,365.00 Z
           M 680.00,365.00
           C 680.00,365.00 864.00,365.00 864.00,365.00
             864.00,365.00 864.00,396.00 864.00,396.00
             863.98,407.10 859.96,411.29 855.26,421.00
             855.26,421.00 841.25,450.00 841.25,450.00
             841.25,450.00 785.75,565.00 785.75,565.00
             785.75,565.00 764.76,608.00 764.76,608.00
             757.83,622.09 760.11,623.98 749.00,624.00
             749.00,624.00 693.00,624.00 693.00,624.00
             693.00,624.00 708.69,592.00 708.69,592.00
             708.69,592.00 728.69,553.00 728.69,553.00
             728.69,553.00 764.26,483.00 764.26,483.00
             764.26,483.00 785.26,442.00 785.26,442.00
             785.26,442.00 799.00,415.00 799.00,415.00
             799.00,415.00 708.00,415.00 708.00,415.00
             708.00,415.00 687.00,415.00 687.00,415.00
             687.00,415.00 681.02,413.40 681.02,413.40
             681.02,413.40 680.00,406.00 680.00,406.00
             680.00,406.00 680.00,365.00 680.00,365.00 Z
           M 1130.00,365.00
           C 1136.55,370.11 1147.02,385.64 1152.79,393.00
             1152.79,393.00 1202.42,458.00 1202.42,458.00
             1202.42,458.00 1226.88,490.00 1226.88,490.00
             1231.34,495.84 1237.35,502.18 1240.00,509.00
             1237.58,510.62 1231.59,515.71 1229.04,515.68
             1225.87,515.64 1222.64,510.33 1220.87,508.00
             1220.87,508.00 1202.42,484.00 1202.42,484.00
             1202.42,484.00 1150.58,416.00 1150.58,416.00
             1150.58,416.00 1119.00,374.00 1119.00,374.00
             1119.00,374.00 1130.00,365.00 1130.00,365.00 Z
           M 130.00,377.29
           C 118.22,379.23 109.12,384.32 104.48,396.00
             96.38,416.39 113.01,439.15 135.00,436.83
             138.88,436.42 143.59,434.98 147.00,433.10
             173.93,418.25 162.68,374.90 130.00,377.29 Z
           M 1105.00,390.00
           C 1111.20,394.83 1127.34,417.36 1133.13,425.00
             1133.13,425.00 1182.87,490.00 1182.87,490.00
             1182.87,490.00 1203.42,517.00 1203.42,517.00
             1207.60,522.37 1212.51,527.61 1215.00,534.00
             1212.61,535.52 1206.32,540.66 1204.04,540.67
             1200.91,540.67 1197.61,535.31 1195.87,533.00
             1195.87,533.00 1176.79,508.00 1176.79,508.00
             1176.79,508.00 1126.35,442.00 1126.35,442.00
             1126.35,442.00 1094.00,399.00 1094.00,399.00
             1094.00,399.00 1105.00,390.00 1105.00,390.00 Z
           M 1183.00,395.00
           C 1183.00,395.00 1410.00,395.00 1410.00,395.00
             1410.00,395.00 1410.00,410.00 1410.00,410.00
             1410.00,410.00 1236.00,410.00 1236.00,410.00
             1236.00,410.00 1197.00,410.00 1197.00,410.00
             1194.06,410.00 1185.87,410.73 1184.02,408.40
             1182.50,406.48 1183.00,397.77 1183.00,395.00 Z
           M 1228.00,434.00
           C 1228.00,434.00 1395.00,434.00 1395.00,434.00
             1395.00,434.00 1395.00,450.00 1395.00,450.00
             1395.00,450.00 1228.00,450.00 1228.00,450.00
             1228.00,450.00 1228.00,434.00 1228.00,434.00 Z
           M 434.00,462.29
           C 425.05,463.77 418.34,466.31 412.79,474.00
             397.84,494.73 413.85,525.03 440.00,521.71
             444.36,521.16 448.21,519.89 452.00,517.65
             479.34,501.44 465.62,459.58 434.00,462.29 Z
           M 641.00,462.29
           C 629.72,464.16 621.26,469.08 616.53,480.00
             607.64,500.52 624.35,524.56 647.00,521.71
             651.56,521.14 656.09,519.92 660.00,517.44
             685.57,501.26 673.68,459.49 641.00,462.29 Z
           M 1250.00,478.00
           C 1250.00,478.00 1395.00,478.00 1395.00,478.00
             1395.00,478.00 1395.00,493.00 1395.00,493.00
             1395.00,493.00 1250.00,493.00 1250.00,493.00
             1250.00,493.00 1250.00,478.00 1250.00,478.00 Z
           M 1262.00,519.00
           C 1262.00,519.00 1277.00,519.00 1277.00,519.00
             1277.00,519.00 1277.00,785.00 1277.00,785.00
             1277.00,785.00 1262.00,785.00 1262.00,785.00
             1262.00,785.00 1262.00,519.00 1262.00,519.00 Z
           M 1302.00,519.00
           C 1302.00,519.00 1317.00,519.00 1317.00,519.00
             1317.00,519.00 1317.00,785.00 1317.00,785.00
             1317.00,785.00 1302.00,785.00 1302.00,785.00
             1302.00,785.00 1302.00,519.00 1302.00,519.00 Z
           M 1347.00,519.00
           C 1347.00,519.00 1362.00,519.00 1362.00,519.00
             1362.00,519.00 1362.00,785.00 1362.00,785.00
             1362.00,785.00 1347.00,785.00 1347.00,785.00
             1347.00,785.00 1347.00,519.00 1347.00,519.00 Z
           M 1220.00,552.00
           C 1220.00,552.00 1236.00,552.00 1236.00,552.00
             1236.00,552.00 1236.00,785.00 1236.00,785.00
             1236.00,785.00 1228.00,785.00 1228.00,785.00
             1221.57,784.96 1220.13,784.84 1220.00,778.00
             1220.00,778.00 1220.00,730.00 1220.00,730.00
             1220.00,730.00 1220.00,552.00 1220.00,552.00 Z
           M 127.00,637.32
           C 121.23,638.62 116.59,640.49 112.09,644.47
             98.87,656.14 99.71,678.41 113.01,689.67
             120.25,695.80 129.84,697.50 139.00,695.69
             159.44,691.64 168.57,666.93 157.15,650.00
             150.04,639.45 139.16,635.99 127.00,637.32 Z" />
</svg>
