<?xml version="1.0" encoding="UTF-8" standalone="no"?>
<!-- Created with Inkscape (http://www.inkscape.org/) -->

<svg
   xmlns:dc="http://purl.org/dc/elements/1.1/"
   xmlns:cc="http://creativecommons.org/ns#"
   xmlns:rdf="http://www.w3.org/1999/02/22-rdf-syntax-ns#"
   xmlns:svg="http://www.w3.org/2000/svg"
   xmlns="http://www.w3.org/2000/svg"
   xmlns:sodipodi="http://sodipodi.sourceforge.net/DTD/sodipodi-0.dtd"
   xmlns:inkscape="http://www.inkscape.org/namespaces/inkscape"
   width="148mm"
   height="105mm"
   viewBox="0 0 148 105"
   version="1.1"
   id="svg3783"
   inkscape:version="0.92.4 (5da689c313, 2019-01-14)"
   sodipodi:docname="Schild.svg"
   inkscape:export-filename="C:\Users\Eduard\Desktop\Schild.png"
   inkscape:export-xdpi="254.57874"
   inkscape:export-ydpi="254.57874">
  <defs
     id="defs3777" />
  <sodipodi:namedview
     id="base"
     pagecolor="#ffffff"
     bordercolor="#666666"
     borderopacity="1.0"
     inkscape:pageopacity="0.0"
     inkscape:pageshadow="2"
     inkscape:zoom="1.1432763"
     inkscape:cx="229.4985"
     inkscape:cy="156.88013"
     inkscape:document-units="mm"
     inkscape:current-layer="layer1"
     showgrid="false"
     inkscape:window-width="1600"
     inkscape:window-height="847"
     inkscape:window-x="-8"
     inkscape:window-y="68"
     inkscape:window-maximized="1" />
  <metadata
     id="metadata3780">
    <rdf:RDF>
      <cc:Work
         rdf:about="">
        <dc:format>image/svg+xml</dc:format>
        <dc:type
           rdf:resource="http://purl.org/dc/dcmitype/StillImage" />
        <dc:title />
      </cc:Work>
    </rdf:RDF>
  </metadata>
  <g
     inkscape:label="Ebene 1"
     inkscape:groupmode="layer"
     id="layer1"
     transform="translate(0,-192)">
    <g
       id="g3981"
       transform="matrix(0.38483154,0,0,0.38483154,17.949587,197.8864)">
      <path
         style="stroke-width:0.26458332"
         id="path3884"
         d="m 122.55497,226.30884 -9.43504,-18.55523 v -0.23019 H 50.032676 v 41.1136 h 54.977774 v -32.1945 H 69.180572 l -10.615083,10.81352 a 2.4050625,2.4050625 0 1 0 0.529166,0.6059 L 69.52453,217.23363 h 34.69217 v 30.60964 H 50.826426 v -39.5261 h 61.687604 l 9.14929,17.99167 h -1.95262 l -8.45079,-16.53646 H 52.810801 v 36.49133 0 0.22754 l 49.868669,0.16934 v -0.79375 0 -27.09863 H 70.802468 v 12.03854 h 1.984375 v 0.43392 a 2.38125,2.38125 0 1 0 0.79375,0 V 230.013 h -1.984375 v -10.45104 h 12.236979 v 11.66813 a 2.38125,2.38125 0 1 0 0.79375,0.0212 v -11.68933 h 17.264063 v 22.88646 H 59.388343 a 2.38125,2.38125 0 1 0 0,0.79375 h 42.502667 v 2.62467 l -48.286459,-0.16405 v -35.13666 h 57.171169 l 8.04862,15.74271 h -1.77535 l -7.50888,-14.4198 H 58.896218 v 2.66171 a 2.38125,2.38125 0 1 0 1.852083,4.13015 l 1.852083,2.28864 5.077354,-5.9055 h 39.907102 l 5.89757,11.2448 h -1.80182 v 0.79375 h 13.081 v -0.79375 z m -65.510836,4.36562 a 1.5875,1.5875 0 1 1 1.5875,-1.5875 1.5875,1.5875 0 0 1 -1.5875,1.5875 z m 17.727084,2.91042 a 1.5875,1.5875 0 1 1 -1.5875,-1.5875 1.5875,1.5875 0 0 1 1.5875,1.5875 z m 10.980208,0 a 1.5875,1.5875 0 1 1 -1.5875,-1.5875 1.5875,1.5875 0 0 1 1.5875,1.5875 z m -28.707292,10.84791 a 1.5875,1.5875 0 1 1 1.5875,-1.5875 1.5875,1.5875 0 0 1 -1.5875,1.5875 z m 2.116667,-25.92916 a 1.5875,1.5875 0 1 1 1.5875,-1.5875 1.5875,1.5875 0 0 1 -1.5875,1.5875 z m 48.905579,-4.23334 H 67.320551 l -4.701646,5.46365 -1.354667,-1.69069 a 2.38125,2.38125 0 0 0 -1.568979,-3.43958 v -1.92088 h 49.358021 l 7.09613,13.62605 h -1.77007 z"
         inkscape:connector-curvature="0" />
      <rect
         style="stroke-width:0.26458332"
         id="rect3886"
         height="0.79374999"
         width="12.004146"
         y="228.42551"
         x="112.75745" />
      <rect
         style="stroke-width:0.26458332"
         id="rect3888"
         height="0.79374999"
         width="8.8635416"
         y="230.54218"
         x="115.12018" />
      <rect
         style="stroke-width:0.26458332"
         id="rect3890"
         height="0.79374999"
         width="7.6729169"
         y="232.84669"
         x="116.3108" />
      <rect
         style="stroke-width:0.26458332"
         id="rect3892"
         transform="rotate(-37.39)"
         height="9.5435209"
         width="0.79374999"
         y="247.01451"
         x="-51.175755" />
      <rect
         style="stroke-width:0.26458332"
         id="rect3894"
         transform="rotate(-37.39)"
         height="9.5435209"
         width="0.79374999"
         y="247.26099"
         x="-53.031315" />
      <rect
         style="stroke-width:0.26458332"
         id="rect3896"
         height="12.340166"
         width="0.79374999"
         y="236.75989"
         x="114.7233" />
      <rect
         style="stroke-width:0.26458332"
         id="rect3898"
         height="14.059958"
         width="0.79374999"
         y="235.04008"
         x="116.91669" />
      <rect
         style="stroke-width:0.26458332"
         id="rect3900"
         height="14.059958"
         width="0.79374999"
         y="235.04008"
         x="119.03336" />
      <rect
         style="stroke-width:0.26458332"
         id="rect3902"
         height="14.059958"
         width="0.79374999"
         y="235.04008"
         x="121.41462" />
      <path
         style="stroke-width:0.26458332"
         id="path3904"
         d="m 64.505384,238.16217 a 8.1544583,8.1544583 0 0 1 -3.577166,-0.889 l -0.656167,2.64583 c 0.79375,0.4445 2.413,0.889 4.042833,0.889 3.915834,0 5.736167,-2.032 5.736167,-4.42383 0,-2.01083 -1.164167,-3.32317 -3.683,-4.2545 -1.852083,-0.6985 -2.645833,-1.10067 -2.645833,-2.01083 0,-0.71967 0.677333,-1.37584 2.074333,-1.37584 a 6.6727917,6.6727917 0 0 1 2.963333,0.67734 l 0.719667,-2.58234 a 8.3449583,8.3449583 0 0 0 -3.640667,-0.71966 c -3.344333,0 -5.3975,1.85208 -5.3975,4.27566 0,2.07434 1.566334,3.38667 3.937,4.23334 1.7145,0.59266 2.38125,1.10066 2.38125,1.98966 0.01058,0.93663 -0.772583,1.54517 -2.25425,1.54517 z"
         inkscape:connector-curvature="0" />
      <polygon
         transform="matrix(0.26458333,0,0,0.26458333,50.032676,207.52342)"
         id="polygon3906"
         points="123.02,80.68 123.02,73 86.3,73 86.3,83 110.14,83 110.14,83.16 88.69,125 101.58,125 " />
      <polygon
         transform="matrix(0.26458333,0,0,0.26458333,50.032676,207.52342)"
         id="polygon3908"
         points="173.02,80.68 173.02,73 136.29,73 136.29,83 160.14,83 160.14,83.16 138.69,125 151.57,125 " />
    </g>
    <g
       id="g4227"
       transform="matrix(0.21144211,0,0,0.21144211,-2.9184133,237.73524)">
      <path
         id="path4045"
         d="m 132.09493,215.83871 c 0.18521,2.27541 -0.52916,4.41854 -1.98437,6.05895 -1.56104,1.74625 -3.88938,2.69875 -6.50875,2.69875 H 66.901601 v 0 c -0.02646,0 -0.05292,0 -0.07937,0 h -0.02646 -0.05292 v 0 c -2.301875,-0.0265 -4.471458,-0.92604 -6.085417,-2.54 -1.719791,-1.69333 -2.645833,-3.96875 -2.672291,-6.37645 v 0 c 0,-4.47146 3.042708,-8.09625 7.196666,-8.78417 0.555625,-3.73063 3.810001,-6.77333 7.831667,-7.40833 0.238125,-1.48167 0.9525,-2.91042 2.090209,-4.07459 1.640416,-1.69333 3.862916,-2.64583 6.138333,-2.64583 2.936875,0 5.503333,1.5875 6.879167,3.96875 1.613958,-5.76792 6.905625,-10.00125 13.176245,-10.00125 6.85271,0 12.56771,5.08 13.52021,11.69458 3.43959,-2.56646 8.01688,-2.32833 11.45646,0.89959 l -0.37042,-0.3175 c 2.75167,2.2225 3.70417,5.23875 3.57188,7.77875 -0.0794,1.50812 -0.58208,2.83104 -1.48167,3.91583 0.87313,0.29104 1.5875,0.79375 2.27542,1.48167 0.9525,0.9525 1.61396,2.14312 1.79917,3.46604 v 0 c 0,0.0529 0,0.10583 0,0.15875 0.0265,-0.0529 0.0265,-0.0265 0.0265,0.0265 z m 4.2598,-21.35188 c -2.01084,-2.72521 -5.00063,-4.73604 -8.28146,-5.58271 -0.74084,-0.15875 -1.50813,0.34396 -1.66688,1.05834 -0.29104,0.74083 0.18521,1.69333 0.97896,1.85208 3.30729,0.87312 6.16479,3.20146 7.67292,6.27062 1.24354,2.51355 1.56104,5.47688 0.87312,8.20209 -0.18521,0.76729 0.37042,1.5875 1.16417,1.69333 0.71437,0.21167 1.50812,-0.21167 1.74625,-0.89958 1.08479,-4.25979 0.15875,-9.04875 -2.48708,-12.59417 z m -9.44563,-0.42333 c -1.13771,-0.21167 -2.01083,1.19062 -1.50812,2.16958 0.1852,0.42333 0.60854,0.71438 1.05833,0.82021 1.71979,0.44979 3.22792,1.64042 4.02167,3.22792 0.71437,1.40229 0.87312,3.0427 0.47625,4.55083 -0.21167,0.76729 0.34395,1.61396 1.1377,1.74625 0.71438,0.21167 1.56105,-0.21167 1.77271,-0.9525 0.74084,-2.69875 0.18521,-5.715 -1.45521,-7.96396 -1.32291,-1.79917 -3.30729,-3.175 -5.50333,-3.59833 z"
         style="fill:#0071bc;stroke-width:0.26458332"
         inkscape:connector-curvature="0" />
      <g
         id="g4065"
         class="title"
         style="fill:#363636"
         transform="matrix(0.26458333,0,0,0.26458333,6.2855597,210.67933)">
        <path
           id="path4047"
           d="m 195.5,70.4 h 27.7 v 7.9 h -9.4 v 31.5 h -9 V 78.3 h -9.4 z"
           inkscape:connector-curvature="0" />
        <path
           id="path4049"
           d="m 237.4,109.9 h -9 V 70.4 h 9 v 15.8 h 12.7 V 70.4 h 9 v 39.5 h -9 V 94 h -12.7 c 0,0 0,15.9 0,15.9 z"
           inkscape:connector-curvature="0" />
        <path
           id="path4051"
           d="m 289.3,78.4 h -13.5 v 7.8 h 13 v 7.9 h -13 v 7.9 h 13.6 v 7.9 H 266.7 V 70.4 h 22.6 z"
           inkscape:connector-curvature="0" />
        <path
           id="path4053"
           d="m 306.6,70.4 h 27.7 v 7.9 h -9.4 v 31.5 h -9 V 78.3 h -9.4 z"
           inkscape:connector-curvature="0" />
        <path
           id="path4055"
           d="m 348.5,109.9 h -9 V 70.4 h 9 v 15.8 h 12.7 V 70.4 h 9 v 39.5 h -9 V 94 h -12.7 z"
           inkscape:connector-curvature="0" />
        <path
           id="path4057"
           d="m 386.9,109.9 h -9 V 70.4 h 9 z"
           inkscape:connector-curvature="0" />
        <path
           id="path4059"
           d="m 403.5,109.9 h -9 V 70.4 h 9 l 15.6,24.4 h 0.1 V 70.4 h 9 v 39.5 h -9 L 403.6,85.5 h -0.1 z"
           inkscape:connector-curvature="0" />
        <path
           id="path4061"
           d="m 471.5,96.3 c -2.2,10 -10.5,14.3 -18.2,14.3 -10.6,0 -19.2,-9.2 -19.2,-20.4 0,-11.4 8.2,-20.4 19.2,-20.4 7,0 11.7,2.6 15.2,6.7 l -5.9,6.5 c -2.3,-3.7 -5.3,-5 -8.8,-5 -5.5,0 -10,5.5 -10,12.3 0,6.7 4.5,12.1 10,12.1 4.3,0 8.6,-2.8 8.6,-7.6 h -9 v -7 h 18.2 v 8.5 z"
           inkscape:connector-curvature="0" />
        <path
           id="path4063"
           d="m 503.3,73.5 -3.7,7.2 c 0,0 -3.9,-2.7 -7.9,-2.7 -3.1,0 -4.6,1.3 -4.6,3.5 0,2.2 3.8,3.8 8.2,5.7 4.4,1.8 9.3,5.6 9.3,10.8 0,9.4 -7.2,12.7 -14.9,12.7 -9.3,0 -14.8,-5.3 -14.8,-5.3 l 4.5,-7.6 c 0,0 5.3,4.4 9.7,4.4 2,0 5.7,-0.2 5.7,-3.9 0,-2.8 -4.2,-4.2 -8.9,-6.5 -4.8,-2.3 -7.5,-6 -7.5,-10.1 0,-7.3 6.5,-12.1 12.8,-12.1 7,0.1 12.1,3.9 12.1,3.9 z"
           inkscape:connector-curvature="0" />
      </g>
      <g
         id="g4081"
         class="subtitle"
         style="fill:#363636"
         transform="matrix(0.26458333,0,0,0.26458333,6.2855597,210.67933)">
        <path
           id="path4067"
           d="M 204.4,147.3 H 199 v -23.7 h 5.4 l 9.5,14.8 v 0 -14.8 h 5.4 v 23.7 h -5.4 l -9.5,-14.8 v 0 z"
           inkscape:connector-curvature="0" />
        <path
           id="path4069"
           d="m 260.9,128.2 h -8.2 v 4.6 h 7.8 v 4.8 h -7.8 v 4.8 h 8.2 v 4.8 h -13.6 v -23.7 h 13.6 z"
           inkscape:connector-curvature="0" />
        <path
           id="path4071"
           d="m 286.9,123.5 h 16.7 v 4.8 H 298 v 18.9 h -5.4 V 128.3 H 287 v -4.8 z"
           inkscape:connector-curvature="0" />
        <path
           id="path4073"
           d="m 344.6,134 -3.8,13.3 h -6 l -6.7,-23.7 h 5.9 l 4,16.4 h 0.1 l 4.3,-16.4 h 4 l 4.3,16.4 h 0.4 l 4,-16.4 h 6 l -6.7,23.7 h -6 z"
           inkscape:connector-curvature="0" />
        <path
           id="path4075"
           d="m 396.9,123.1 c 6.6,0 12,5.4 12,12.2 0,7 -5.1,12.3 -12,12.3 -7.1,0 -12,-5.4 -12,-12.3 0,-6.9 5.4,-12.2 12,-12.2 z m 0,19.3 c 4.3,0 6.1,-3.5 6.1,-7.1 0,-3.4 -2,-7.1 -6.1,-7.1 -4.2,0 -6.1,3.5 -6.1,7.1 0,3.6 1.7,7.1 6.1,7.1 z"
           inkscape:connector-curvature="0" />
        <path
           id="path4077"
           d="m 444.2,123.5 c 4.4,0 7.8,2.4 7.8,7.1 0,3.5 -2,6 -4.9,6.8 l 8.2,9.9 h -6.8 l -7.2,-9.4 v 9.4 h -5.4 v -23.7 z m -2.5,10.6 c 2.1,0 4.4,-0.1 4.4,-3.2 0,-3.1 -2.4,-3.2 -4.4,-3.2 h -0.6 v 6.2 h 0.6 z"
           inkscape:connector-curvature="0" />
        <path
           id="path4079"
           d="m 494.9,147.3 -8.8,-10.1 v 10.1 h -5.4 v -23.7 h 5.4 v 9.8 l 8.2,-9.8 h 6.6 l -9.7,11.2 11,12.5 z"
           inkscape:connector-curvature="0" />
      </g>
      <g
         id="g4097"
         class="city"
         style="fill:#363636"
         transform="matrix(0.26458333,0,0,0.26458333,6.2855597,210.67933)">
        <path
           id="path4083"
           d="m 198,183 c 0,-3.5 1.2,-6.4 3.5,-8.8 2.4,-2.4 5.2,-3.6 8.5,-3.6 3.3,0 6.2,1.2 8.5,3.6 2.3,2.4 3.5,5.3 3.5,8.8 0,3.5 -1.2,6.4 -3.5,8.8 -2.3,2.4 -5.2,3.6 -8.6,3.6 -3.5,0 -6.4,-1.2 -8.7,-3.6 -2.1,-2.3 -3.2,-5.2 -3.2,-8.8 z m 5.9,0 c 0,1.3 0.2,2.4 0.6,3.4 0.4,1 1.1,1.9 2,2.6 1,0.7 2.2,1.1 3.6,1.1 2,0 3.6,-0.7 4.6,-2.1 1,-1.4 1.6,-3.1 1.6,-5 0,-2 -0.5,-3.6 -1.6,-5 -1.1,-1.4 -2.6,-2.1 -4.6,-2.1 -2,0 -3.5,0.7 -4.6,2.1 -1.1,1.4 -1.6,3.1 -1.6,5 z"
           inkscape:connector-curvature="0"
           style="fill:#363636" />
        <path
           id="path4085"
           d="m 249.9,171.1 h 8.6 c 2.3,0 4.2,0.6 5.6,1.8 1.5,1.2 2.2,3 2.2,5.3 0,1.8 -0.4,3.2 -1.3,4.4 -0.9,1.2 -2.1,2 -3.6,2.5 l 8.2,9.9 h -6.9 l -7.3,-9.5 v 9.5 h -5.5 z m 5.5,10.6 h 0.6 c 0.5,0 0.9,0 1.3,0 0.4,0 0.7,-0.1 1.2,-0.2 0.5,-0.1 0.8,-0.3 1.1,-0.5 0.3,-0.2 0.5,-0.5 0.7,-0.9 0.2,-0.4 0.3,-0.9 0.3,-1.5 0,-0.6 -0.1,-1.1 -0.3,-1.5 -0.2,-0.4 -0.4,-0.7 -0.7,-0.9 -0.3,-0.2 -0.6,-0.4 -1.1,-0.5 -0.5,-0.1 -0.8,-0.2 -1.2,-0.2 -0.4,0 -0.8,0 -1.3,0 h -0.6 z"
           inkscape:connector-curvature="0"
           style="fill:#363636" />
        <path
           id="path4087"
           d="m 297,175.9 v -4.8 h 16.8 v 4.8 h -5.7 V 195 h -5.5 v -19.1 z"
           inkscape:connector-curvature="0"
           style="fill:#363636" />
        <path
           id="path4089"
           d="m 356.15,171.1 v 4.8 h -8.2 v 4.8 h 7.9 v 4.8 h -7.9 v 4.8 h 8.2 v 4.7 h -13.7 v -23.9 z"
           inkscape:connector-curvature="0"
           style="fill:#363636" />
        <path
           id="path4091"
           d="M 388.3,180.2 V 195 h -5.5 v -23.9 h 5.5 l 9.5,14.8 h 0.1 v -14.8 h 5.5 V 195 h -5.5 z"
           inkscape:connector-curvature="0"
           style="fill:#363636" />
        <path
           id="path4093"
           d="m 443.35,171.1 9.6,23.9 h -5.9 l -1.8,-4.8 h -9.1 l -1.7,4.8 h -5.9 l 9.7,-23.9 z m 0.2,14.3 -2.7,-7 h -0.1 l -2.7,7 z"
           inkscape:connector-curvature="0"
           style="fill:#363636" />
        <path
           id="path4095"
           d="m 501.8,171.1 v 15.4 c 0,2.9 -0.8,5.2 -2.4,6.7 -1.6,1.5 -3.9,2.3 -7,2.3 -3.1,0 -5.4,-0.8 -7,-2.3 -1.6,-1.5 -2.4,-3.7 -2.4,-6.7 v -15.4 h 5.5 v 13.8 c 0,1.9 0.3,3.3 0.9,4 0.6,0.8 1.6,1.1 3,1.1 1.4,0 2.4,-0.4 3,-1.1 0.6,-0.8 0.9,-2.1 0.9,-4 v -13.8 z"
           inkscape:connector-curvature="0"
           style="fill:#363636" />
      </g>
    </g>
    <text
       xml:space="preserve"
       style="font-style:normal;font-variant:normal;font-weight:normal;font-stretch:normal;font-size:10.58333302px;line-height:1.25;font-family:'Ink Free';-inkscape-font-specification:'Ink Free';letter-spacing:0px;word-spacing:0px;fill:#000000;fill-opacity:1;stroke:none;stroke-width:0.26458332"
       x="4.7337704"
       y="201.21312"
       id="text4231"><tspan
         sodipodi:role="line"
         x="4.7337704"
         y="201.21312"
         style="font-style:normal;font-variant:normal;font-weight:600;font-stretch:normal;font-size:7.76111126px;line-height:0px;font-family:'Segoe UI';-inkscape-font-specification:'Segoe UI, Semi-Bold';font-variant-ligatures:normal;font-variant-caps:normal;font-variant-numeric:normal;font-feature-settings:normal;text-align:start;letter-spacing:0.50270832px;word-spacing:0px;writing-mode:lr-tb;text-anchor:start;stroke-width:0.26458332"
         id="tspan3857">Dies ist ein Gateway für das Funk-</tspan><tspan
         sodipodi:role="line"
         x="4.7337704"
         y="214.44229"
         style="font-style:normal;font-variant:normal;font-weight:600;font-stretch:normal;font-size:7.76111126px;line-height:0px;font-family:'Segoe UI';-inkscape-font-specification:'Segoe UI, Semi-Bold';font-variant-ligatures:normal;font-variant-caps:normal;font-variant-numeric:normal;font-feature-settings:normal;text-align:start;letter-spacing:0.50270832px;word-spacing:0px;writing-mode:lr-tb;text-anchor:start;stroke-width:0.26458332"
         id="tspan4239">Netzwerk LoRaWAN und Eigentum</tspan><tspan
         sodipodi:role="line"
         x="4.7337704"
         y="227.67145"
         style="font-style:normal;font-variant:normal;font-weight:600;font-stretch:normal;font-size:7.76111126px;line-height:0px;font-family:'Segoe UI';-inkscape-font-specification:'Segoe UI, Semi-Bold';font-variant-ligatures:normal;font-variant-caps:normal;font-variant-numeric:normal;font-feature-settings:normal;text-align:start;letter-spacing:0.50270832px;word-spacing:0px;writing-mode:lr-tb;text-anchor:start;stroke-width:0.26458332"
         id="tspan4241">des Section77 e.V. - bei Fragen zu </tspan><tspan
         sodipodi:role="line"
         x="4.7337704"
         y="240.90062"
         style="font-style:normal;font-variant:normal;font-weight:600;font-stretch:normal;font-size:7.76111126px;line-height:0px;font-family:'Segoe UI';-inkscape-font-specification:'Segoe UI, Semi-Bold';font-variant-ligatures:normal;font-variant-caps:normal;font-variant-numeric:normal;font-feature-settings:normal;text-align:start;letter-spacing:0.50270832px;word-spacing:0px;writing-mode:lr-tb;text-anchor:start;stroke-width:0.26458332"
         id="tspan142">dieser Installation wenden Sie sich </tspan><tspan
         sodipodi:role="line"
         x="4.7337704"
         y="254.12979"
         style="font-style:normal;font-variant:normal;font-weight:600;font-stretch:normal;font-size:7.76111126px;line-height:0px;font-family:'Segoe UI';-inkscape-font-specification:'Segoe UI, Semi-Bold';font-variant-ligatures:normal;font-variant-caps:normal;font-variant-numeric:normal;font-feature-settings:normal;text-align:start;letter-spacing:0.50270832px;word-spacing:0px;writing-mode:lr-tb;text-anchor:start;stroke-width:0.26458332"
         id="tspan3873">bitte an:</tspan></text>
    <text
       xml:space="preserve"
       style="font-style:normal;font-variant:normal;font-weight:normal;font-stretch:normal;font-size:10.58333302px;line-height:1.25;font-family:'Ink Free';-inkscape-font-specification:'Ink Free';letter-spacing:0px;word-spacing:0px;fill:#000000;fill-opacity:1;stroke:none;stroke-width:0.26458332"
       x="13.335799"
       y="268.4191"
       id="text4245"><tspan
         sodipodi:role="line"
         id="tspan4243"
         x="13.335799"
         y="268.4191"
         style="font-style:normal;font-variant:normal;font-weight:bold;font-stretch:normal;font-family:'Segoe UI';-inkscape-font-specification:'Segoe UI Bold';letter-spacing:0.42333332px;stroke-width:0.26458332">lorawan@section77.de</tspan></text>
  </g>
</svg>
