<?xml version="1.0" encoding="UTF-8" standalone="no"?>
<!-- Created with Inkscape (http://www.inkscape.org/) -->

<svg
   xmlns:dc="http://purl.org/dc/elements/1.1/"
   xmlns:cc="http://creativecommons.org/ns#"
   xmlns:rdf="http://www.w3.org/1999/02/22-rdf-syntax-ns#"
   xmlns:svg="http://www.w3.org/2000/svg"
   xmlns="http://www.w3.org/2000/svg"
   xmlns:sodipodi="http://sodipodi.sourceforge.net/DTD/sodipodi-0.dtd"
   xmlns:inkscape="http://www.inkscape.org/namespaces/inkscape"
   width="52mm"
   height="52mm"
   viewBox="0 0 51.999999 51.999999"
   version="1.1"
   id="svg26"
   inkscape:version="0.92.4 5da689c313, 2019-01-14"
   sodipodi:docname="logo_white_52x52mm.svg">
  <defs
     id="defs20" />
  <sodipodi:namedview
     id="base"
     pagecolor="#ffffff"
     bordercolor="#666666"
     borderopacity="1.0"
     inkscape:pageopacity="1"
     inkscape:pageshadow="2"
     inkscape:zoom="2.49"
     inkscape:cx="43.7751"
     inkscape:cy="83.149742"
     inkscape:document-units="mm"
     inkscape:current-layer="layer1"
     showgrid="false"
     inkscape:pagecheckerboard="true"
     inkscape:window-width="1920"
     inkscape:window-height="1016"
     inkscape:window-x="0"
     inkscape:window-y="27"
     inkscape:window-maximized="1" />
  <metadata
     id="metadata23">
    <rdf:RDF>
      <cc:Work
         rdf:about="">
        <dc:format>image/svg+xml</dc:format>
        <dc:type
           rdf:resource="http://purl.org/dc/dcmitype/StillImage" />
        <dc:title></dc:title>
      </cc:Work>
    </rdf:RDF>
  </metadata>
  <g
     inkscape:label="Ebene 1"
     inkscape:groupmode="layer"
     id="layer1"
     transform="translate(0,-245)">
    <path
       d="m 47.641691,269.97064 -5.80782,-11.42182 v -0.14169 H 3 v 25.30782 H 36.842018 V 263.89736 H 14.786644 l -6.5342014,6.65635 a 1.4804559,1.4804559 0 1 0 0.3257327,0.37296 l 6.4201957,-6.54234 h 21.355048 v 18.84202 H 3.4885995 V 258.89573 H 41.460912 l 5.631918,11.07491 H 45.890874 L 40.688922,259.7915 H 4.7100975 v 22.46253 0 0.14007 l 30.6970655,0.10423 v -0.4886 0 -16.68077 H 15.785016 v 7.41042 h 1.221498 v 0.2671 a 1.465798,1.465798 0 1 0 0.488599,0 v -0.7557 h -1.221498 v -6.43323 h 7.532572 v 7.18241 a 1.465798,1.465798 0 1 0 0.488599,0.013 v -7.19543 h 10.627036 v 14.08795 H 8.7589575 a 1.465798,1.465798 0 1 0 0,0.4886 H 34.921822 v 1.61563 L 5.1986969,281.90875 V 260.28009 H 40.390877 l 4.954398,9.69055 h -1.092837 l -4.622147,-8.87621 H 8.4560258 v 1.63843 a 1.465798,1.465798 0 1 0 1.1400649,2.54234 l 1.1400653,1.4088 3.125407,-3.63518 h 24.565144 l 3.630294,6.92182 H 40.94788 v 0.4886 h 8.052118 v -0.4886 z m -40.3257302,2.6873 a 0.97719864,0.97719864 0 1 1 0.9771984,-0.97719 0.97719864,0.97719864 0 0 1 -0.9771984,0.97719 z m 10.9120512,1.79153 a 0.97719864,0.97719864 0 1 1 -0.977198,-0.97719 0.97719864,0.97719864 0 0 1 0.977198,0.97719 z m 6.758957,0 a 0.97719864,0.97719864 0 1 1 -0.977198,-0.97719 0.97719864,0.97719864 0 0 1 0.977198,0.97719 z M 7.3159608,281.127 a 0.97719864,0.97719864 0 1 1 0.9771984,-0.9772 0.97719864,0.97719864 0 0 1 -0.9771984,0.9772 z m 1.3029316,-15.96092 a 0.97719864,0.97719864 0 1 1 0.9771983,-0.97719 0.97719864,0.97719864 0 0 1 -0.9771983,0.97719 z M 38.723124,262.56022 H 13.641693 l -2.894136,3.3632 -0.8338765,-1.04072 a 1.465798,1.465798 0 0 0 -0.9657984,-2.11727 v -1.1824 H 39.330616 l 4.368077,8.38761 h -1.089577 z"
       id="path12"
       inkscape:connector-curvature="0"
       style="stroke-width:0.16286644;fill:#000000;fill-opacity:1" />
    <rect
       x="41.610748"
       y="271.27362"
       width="7.3892498"
       height="0.48859933"
       id="rect14"
       style="stroke-width:0.16286644;fill:#000000;fill-opacity:1" />
    <rect
       x="43.065144"
       y="272.57654"
       width="5.4560256"
       height="0.48859933"
       id="rect16"
       style="stroke-width:0.16286644;fill:#000000;fill-opacity:1" />
    <rect
       x="43.798042"
       y="273.99512"
       width="4.7231264"
       height="0.48859933"
       id="rect18"
       style="stroke-width:0.16286644;fill:#000000;fill-opacity:1" />
    <rect
       x="-132.93202"
       y="238.98737"
       width="0.48859933"
       height="5.8745923"
       transform="rotate(-37.39)"
       id="rect20"
       style="stroke-width:0.16286644;fill:#000000;fill-opacity:1" />
    <rect
       x="-134.07425"
       y="239.1391"
       width="0.48859933"
       height="5.8745923"
       transform="rotate(-37.39)"
       id="rect22"
       style="stroke-width:0.16286644;fill:#000000;fill-opacity:1" />
    <rect
       x="42.820847"
       y="276.4039"
       width="0.48859933"
       height="7.5960903"
       id="rect24"
       style="stroke-width:0.16286644;fill:#000000;fill-opacity:1" />
    <rect
       x="44.171009"
       y="275.34528"
       width="0.48859933"
       height="8.6547222"
       id="rect26"
       style="stroke-width:0.16286644;fill:#000000;fill-opacity:1" />
    <rect
       x="45.473938"
       y="275.34528"
       width="0.48859933"
       height="8.6547222"
       id="rect28"
       style="stroke-width:0.16286644;fill:#000000;fill-opacity:1" />
    <rect
       x="46.939739"
       y="275.34528"
       width="0.48859933"
       height="8.6547222"
       id="rect30"
       style="stroke-width:0.16286644;fill:#000000;fill-opacity:1" />
    <path
       d="m 11.908794,277.26707 a 5.0195436,5.0195436 0 0 1 -2.2019542,-0.54724 l -0.4039089,1.62867 c 0.4885995,0.27361 1.4853421,0.54723 2.4886001,0.54723 2.410423,0 3.530944,-1.25081 3.530944,-2.72313 0,-1.23779 -0.716612,-2.0456 -2.267101,-2.61889 -1.140065,-0.42997 -1.628664,-0.67753 -1.628664,-1.23779 0,-0.44299 0.416938,-0.84691 1.276873,-0.84691 a 4.1074916,4.1074916 0 0 1 1.824104,0.41695 l 0.442997,-1.58958 a 5.1368075,5.1368075 0 0 0 -2.241043,-0.443 c -2.058632,0 -3.3224755,1.14007 -3.3224755,2.63193 0,1.27687 0.9641695,2.08468 2.4234525,2.60586 1.055375,0.36482 1.465799,0.67752 1.465799,1.22475 0.0065,0.57655 -0.47557,0.95115 -1.387623,0.95115 z"
       id="path32"
       inkscape:connector-curvature="0"
       style="stroke-width:0.16286644;fill:#000000;fill-opacity:1" />
    <polygon
       points="101.58,125 123.02,80.68 123.02,73 86.3,73 86.3,83 110.14,83 110.14,83.16 88.69,125 "
       id="polygon34"
       transform="matrix(0.16286644,0,0,0.16286644,3.0000001,258.40713)"
       style="fill:#000000;fill-opacity:1" />
    <polygon
       points="151.57,125 173.02,80.68 173.02,73 136.29,73 136.29,83 160.14,83 160.14,83.16 138.69,125 "
       id="polygon36"
       transform="matrix(0.16286644,0,0,0.16286644,3.0000001,258.40713)"
       style="fill:#000000;fill-opacity:1" />
  </g>
</svg>
