<?xml version="1.0" encoding="UTF-8" standalone="no"?>
<!-- Created with Inkscape (http://www.inkscape.org/) -->

<svg
   xmlns:dc="http://purl.org/dc/elements/1.1/"
   xmlns:cc="http://creativecommons.org/ns#"
   xmlns:rdf="http://www.w3.org/1999/02/22-rdf-syntax-ns#"
   xmlns:svg="http://www.w3.org/2000/svg"
   xmlns="http://www.w3.org/2000/svg"
   xmlns:sodipodi="http://sodipodi.sourceforge.net/DTD/sodipodi-0.dtd"
   xmlns:inkscape="http://www.inkscape.org/namespaces/inkscape"
   width="74mm"
   height="52mm"
   viewBox="0 0 74 52"
   version="1.1"
   id="svg26"
   inkscape:version="0.92.4 5da689c313, 2019-01-14"
   sodipodi:docname="logo_web_black_a8.svg">
  <defs
     id="defs20" />
  <sodipodi:namedview
     id="base"
     pagecolor="#000000"
     bordercolor="#666666"
     borderopacity="1.0"
     inkscape:pageopacity="0"
     inkscape:pageshadow="2"
     inkscape:zoom="2.43"
     inkscape:cx="110.62708"
     inkscape:cy="82.558404"
     inkscape:document-units="mm"
     inkscape:current-layer="layer1"
     showgrid="false"
     inkscape:pagecheckerboard="true"
     showguides="true"
     inkscape:guide-bbox="true"
     inkscape:window-width="1920"
     inkscape:window-height="1016"
     inkscape:window-x="0"
     inkscape:window-y="27"
     inkscape:window-maximized="1" />
  <metadata
     id="metadata23">
    <rdf:RDF>
      <cc:Work
         rdf:about="">
        <dc:format>image/svg+xml</dc:format>
        <dc:type
           rdf:resource="http://purl.org/dc/dcmitype/StillImage" />
        <dc:title></dc:title>
      </cc:Work>
    </rdf:RDF>
  </metadata>
  <g
     inkscape:label="Ebene 1"
     inkscape:groupmode="layer"
     id="layer1"
     transform="translate(0,-245)">
    <rect
       style="fill:#000000;fill-opacity:1;stroke:#000000;stroke-width:0.16254321;stroke-miterlimit:4;stroke-dasharray:none;stroke-opacity:1"
       id="rect1300"
       width="79.775803"
       height="57.837456"
       x="-2.9187284"
       y="242.08128" />
    <path
       d="m 68.992064,265.0941 -8.585473,-16.88443 v -0.20946 H 3 v 37.41156 H 53.02733 V 256.1162 H 20.423735 l -9.659255,9.83983 a 2.1884999,2.1884999 0 1 0 0.481518,0.55133 l 9.490723,-9.67129 h 31.568332 v 27.85342 H 3.7222774 v -35.967 H 59.85526 l 8.325445,16.37161 H 66.4039 L 58.714058,250.04667 H 5.5279702 v 33.20549 0 0.20705 l 45.3782708,0.15409 v -0.72228 0 -24.65854 H 21.899588 v 10.95453 h 1.805693 v 0.39485 a 2.1668317,2.1668317 0 1 0 0.722277,0 v -1.11713 h -1.805693 v -9.50998 h 11.135107 v 10.61747 a 2.1668317,2.1668317 0 1 0 0.722277,0.0192 V 258.95475 H 50.18878 v 20.82566 H 11.513241 a 2.1668317,2.1668317 0 1 0 0,0.72228 H 50.18878 v 2.38833 L 6.2502475,282.74174 v -31.9728 H 58.27347 l 7.323891,14.32516 h -1.615497 l -6.83274,-13.12136 H 11.065429 v 2.42203 a 2.1668317,2.1668317 0 1 0 1.685314,3.75825 l 1.685313,2.08257 4.620167,-5.37374 h 36.313692 l 5.366521,10.23225 h -1.639571 v 0.72228 h 11.903131 v -0.72228 z m -59.6119482,3.97253 a 1.4445545,1.4445545 0 1 1 1.4445542,-1.44455 1.4445545,1.4445545 0 0 1 -1.4445542,1.44455 z m 16.1308582,2.64835 a 1.4445545,1.4445545 0 1 1 -1.444555,-1.44455 1.4445545,1.4445545 0 0 1 1.444555,1.44455 z m 9.991501,0 a 1.4445545,1.4445545 0 1 1 -1.444554,-1.44455 1.4445545,1.4445545 0 0 1 1.444554,1.44455 z M 9.3801158,281.5861 a 1.4445545,1.4445545 0 1 1 1.4445542,-1.44455 1.4445545,1.4445545 0 0 1 -1.4445542,1.44455 z m 1.9260732,-23.59439 a 1.4445545,1.4445545 0 1 1 1.444554,-1.44455 1.4445545,1.4445545 0 0 1 -1.444554,1.44455 z m 44.501907,-3.85214 H 18.731198 l -4.278288,4.97167 -1.232687,-1.53845 a 2.1668317,2.1668317 0 0 0 -1.427702,-3.12987 v -1.7479 h 44.913607 l 6.457157,12.39908 h -1.610679 z"
       id="path12"
       inkscape:connector-curvature="0"
       style="stroke-width:0.24075907;fill:#ffffff;fill-opacity:1" />
    <rect
       x="60.076763"
       y="267.02011"
       width="10.923239"
       height="0.72227722"
       id="rect14"
       style="stroke-width:0.24075907;fill:#ffffff;fill-opacity:1" />
    <rect
       x="62.226738"
       y="268.94617"
       width="8.0654287"
       height="0.72227722"
       id="rect16"
       style="stroke-width:0.24075907;fill:#ffffff;fill-opacity:1" />
    <rect
       x="63.310146"
       y="271.04318"
       width="6.9820127"
       height="0.72227722"
       id="rect18"
       style="stroke-width:0.24075907;fill:#ffffff;fill-opacity:1" />
    <rect
       x="-116.28279"
       y="245.95415"
       width="0.72227722"
       height="8.6841803"
       transform="rotate(-37.39)"
       id="rect20"
       style="stroke-width:0.24075907;fill:#ffffff;fill-opacity:1" />
    <rect
       x="-117.97128"
       y="246.17844"
       width="0.72227722"
       height="8.6841803"
       transform="rotate(-37.39)"
       id="rect22"
       style="stroke-width:0.24075907;fill:#ffffff;fill-opacity:1" />
    <rect
       x="61.865601"
       y="274.604"
       width="0.72227722"
       height="14.2183"
       id="rect24"
       style="stroke-width:0.27091679;fill:#ffffff;fill-opacity:1" />
    <rect
       x="63.861492"
       y="273.03906"
       width="0.72227722"
       height="18.798647"
       id="rect26"
       style="stroke-width:0.29183936;fill:#ffffff;fill-opacity:1" />
    <rect
       x="65.787567"
       y="273.03906"
       width="0.72227722"
       height="20.960936"
       id="rect28"
       style="stroke-width:0.30816683;fill:#ffffff;fill-opacity:1" />
    <path
       d="m 16.169522,275.88012 a 7.4201948,7.4201948 0 0 1 -3.255063,-0.80896 l -0.597083,2.40759 c 0.722277,0.40448 2.195723,0.80895 3.6788,0.80895 3.563233,0 5.219656,-1.84902 5.219656,-4.02549 0,-1.82977 -1.05934,-3.02393 -3.351367,-3.87141 -1.685313,-0.6356 -2.40759,-1.00156 -2.40759,-1.82977 0,-0.65486 0.616343,-1.25194 1.887551,-1.25194 a 6.071944,6.071944 0 0 1 2.696501,0.61634 l 0.654865,-2.34981 a 7.5935414,7.5935414 0 0 0 -3.312845,-0.65486 c -3.043195,0 -4.911485,1.68532 -4.911485,3.89067 0,1.88755 1.425294,3.08171 3.582495,3.85214 1.560119,0.5393 2.166832,1.00156 2.166832,1.81051 0.0096,0.85229 -0.703016,1.40604 -2.051267,1.40604 z"
       id="path32"
       inkscape:connector-curvature="0"
       style="stroke-width:0.24075907;fill:#ffffff;fill-opacity:1" />
    <polygon
       points="86.3,83 110.14,83 110.14,83.16 88.69,125 101.58,125 123.02,80.68 123.02,73 86.3,73 "
       id="polygon34"
       transform="matrix(0.24075907,0,0,0.24075907,3.0000001,248.00021)"
       style="fill:#ffffff;fill-opacity:1" />
    <polygon
       points="136.29,83 160.14,83 160.14,83.16 138.69,125 151.57,125 173.02,80.68 173.02,73 136.29,73 "
       id="polygon36"
       transform="matrix(0.24075907,0,0,0.24075907,3.0000001,248.00021)"
       style="fill:#ffffff;fill-opacity:1" />
    <text
       xml:space="preserve"
       style="font-style:normal;font-weight:normal;font-size:10.58333302px;line-height:1.25;font-family:sans-serif;letter-spacing:0px;word-spacing:0px;fill:#ffffff;fill-opacity:1;stroke:none;stroke-width:0.26458332;"
       x="-289.58862"
       y="14.202801"
       id="text83"
       transform="rotate(-90)"><tspan
         sodipodi:role="line"
         id="tspan81"
         x="14.731967"
         y="-290.1178"
         style="font-style:normal;font-variant:normal;font-weight:bold;font-stretch:normal;font-size:2.82222223px;font-family:sans-serif;-inkscape-font-specification:'sans-serif, Bold';font-variant-ligatures:normal;font-variant-caps:normal;font-variant-numeric:normal;font-feature-settings:normal;text-align:start;writing-mode:tb-rl;text-anchor:start;stroke-width:0.26458332;fill:#ffffff;fill-opacity:1;">section77.de</tspan></text>
    <path
       d="m 8.8424939,289.94253 c 0.4394197,2.62789 4.2554791,2.28734 4.2554791,-0.36114 0,-2.64848 -3.8160594,-2.98903 -4.2554791,-0.36114 z m 2.1101791,-1.80569 c 1.27321,0 1.9106,1.55599 1.01042,2.46596 -0.90019,0.90997 -2.4394397,0.26564 -2.4394297,-1.02141 0,-0.7978 0.6397897,-1.44455 1.4290097,-1.44455 z"
       id="path12-3-5"
       inkscape:connector-curvature="0"
       style="stroke-width:0.23946069;fill:#ffffff;fill-opacity:1"
       sodipodi:nodetypes="csccssss" />
    <path
       d="m 57.934161,281.6978 c 2.627891,-0.43942 2.287341,-4.25548 -0.36114,-4.25548 -2.648482,0 -2.989032,3.81606 -0.36114,4.25548 z m -1.805691,-2.11018 c 0,-1.27321 1.555991,-1.9106 2.465962,-1.01042 0.90997,0.90019 0.26564,2.43944 -1.021411,2.43943 -0.7978,0 -1.444551,-0.63979 -1.444551,-1.42901 z"
       id="path12-3-5-9"
       inkscape:connector-curvature="0"
       style="stroke-width:0.23946069;fill:#ffffff;fill-opacity:1"
       sodipodi:nodetypes="csccssss" />
    <path
       d="m 40.063345,289.22025 c -0.439418,-2.62789 -4.255474,-2.28734 -4.255474,0.36114 0,2.64848 3.816056,2.98903 4.255474,0.36114 z m -2.110179,1.80569 c -1.273207,0 -1.910601,-1.55599 -1.010415,-2.46596 0.900185,-0.90997 2.439434,-0.26564 2.43943,1.02141 -3e-6,0.7978 -0.639794,1.44455 -1.429015,1.44455 z"
       id="path12-3-5-2"
       inkscape:connector-curvature="0"
       style="stroke-width:0.23946069;fill:#ffffff;fill-opacity:1"
       sodipodi:nodetypes="csccssss" />
    <rect
       x="57.211884"
       y="281.53265"
       width="0.72227722"
       height="7.3052883"
       id="rect24-2"
       style="stroke-width:0.19419174;fill:#ffffff;fill-opacity:1" />
    <rect
       x="-289.54459"
       y="57.216042"
       width="0.72227722"
       height="5.3718348"
       id="rect24-2-8"
       style="stroke-width:0.16652271;fill:#ffffff;fill-opacity:1"
       transform="rotate(-90)" />
    <rect
       x="293.27771"
       y="-65.787567"
       width="0.72227722"
       height="62.787567"
       id="rect28-9"
       style="stroke-width:0.53335625;fill:#ffffff;fill-opacity:1"
       transform="rotate(90)" />
    <rect
       x="291.13211"
       y="-63.934608"
       width="0.72227722"
       height="8.8467875"
       id="rect28-9-7"
       style="stroke-width:0.20020428;fill:#ffffff;fill-opacity:1"
       transform="rotate(90)" />
    <rect
       x="54.558655"
       y="289.22989"
       width="0.72227722"
       height="2.6244948"
       id="rect24-2-3"
       style="stroke-width:0.11639516;fill:#ffffff;fill-opacity:1" />
    <rect
       x="289.22025"
       y="-55.189278"
       width="0.72227722"
       height="15.219424"
       id="rect28-9-7-6"
       style="stroke-width:0.26259094;fill:#ffffff;fill-opacity:1"
       transform="rotate(90)" />
    <rect
       x="289.21063"
       y="-9.198679"
       width="0.72227722"
       height="6.1986794"
       id="rect28-9-7-6-1"
       style="stroke-width:0.16758308;fill:#ffffff;fill-opacity:1"
       transform="rotate(90)" />
    <rect
       x="3"
       y="289.93292"
       width="0.72227722"
       height="3.3448012"
       id="rect24-2-3-2"
       style="stroke-width:0.13140056;fill:#ffffff;fill-opacity:1" />
    <rect
       x="67.704514"
       y="273.03906"
       width="0.72227722"
       height="20.960936"
       id="rect28-93"
       style="stroke-width:0.30816683;fill:#ffffff;fill-opacity:1" />
  </g>
</svg>
