<?xml version="1.0" encoding="UTF-8" standalone="no"?>
<!-- Created with Inkscape (http://www.inkscape.org/) -->

<svg
   xmlns:dc="http://purl.org/dc/elements/1.1/"
   xmlns:cc="http://creativecommons.org/ns#"
   xmlns:rdf="http://www.w3.org/1999/02/22-rdf-syntax-ns#"
   xmlns:svg="http://www.w3.org/2000/svg"
   xmlns="http://www.w3.org/2000/svg"
   xmlns:sodipodi="http://sodipodi.sourceforge.net/DTD/sodipodi-0.dtd"
   xmlns:inkscape="http://www.inkscape.org/namespaces/inkscape"
   width="89mm"
   height="52mm"
   viewBox="0 0 89 52"
   version="1.1"
   id="svg51"
   inkscape:version="0.92.4 5da689c313, 2019-01-14"
   sodipodi:docname="logo_transparent_89x52mm.svg">
  <defs
     id="defs45" />
  <sodipodi:namedview
     id="base"
     pagecolor="#ffffff"
     bordercolor="#666666"
     borderopacity="1.0"
     inkscape:pageopacity="0.0"
     inkscape:pageshadow="2"
     inkscape:zoom="3.2796268"
     inkscape:cx="162.68298"
     inkscape:cy="88.944805"
     inkscape:document-units="mm"
     inkscape:current-layer="layer1"
     showgrid="false"
     inkscape:window-width="1920"
     inkscape:window-height="1016"
     inkscape:window-x="0"
     inkscape:window-y="27"
     inkscape:window-maximized="1"
     inkscape:pagecheckerboard="true" />
  <metadata
     id="metadata48">
    <rdf:RDF>
      <cc:Work
         rdf:about="">
        <dc:format>image/svg+xml</dc:format>
        <dc:type
           rdf:resource="http://purl.org/dc/dcmitype/StillImage" />
        <dc:title />
      </cc:Work>
    </rdf:RDF>
  </metadata>
  <g
     inkscape:label="Ebene 1"
     inkscape:groupmode="layer"
     id="layer1"
     transform="translate(0,-245)">
    <path
       d="M 82.582485,268.99281 72.228389,248.63016 v -0.25261 H 2.9959405 v 45.1184 H 63.328988 v -35.3305 H 24.008995 l -11.649078,11.86684 a 2.6393348,2.6393348 0 1 0 0.580712,0.66491 l 11.445828,-11.66359 h 38.071464 v 33.59127 H 3.8670083 V 249.24862 H 71.563482 l 10.040503,19.74419 h -2.14283 L 70.187192,250.84558 H 6.0446768 v 40.04588 0 0.2497 l 54.7262742,0.18583 v -0.87107 0 -29.73824 H 25.788877 v 13.21119 h 2.177668 v 0.47618 a 2.6132029,2.6132029 0 1 0 0.871068,0 v -1.34725 h -2.177669 v -11.46906 h 13.428959 v 12.80469 a 2.6132029,2.6132029 0 1 0 0.871067,0.0232 v -12.8279 h 18.945721 v 25.11578 H 13.262924 a 2.6132029,2.6132029 0 1 0 0,0.87107 h 46.642767 v 2.88033 L 6.9157447,290.2759 V 251.71664 H 69.655842 l 8.832625,17.27617 H 76.540175 L 68.299879,253.16842 H 12.722862 v 2.92098 a 2.6132029,2.6132029 0 1 0 2.032491,4.53245 l 2.032491,2.51158 5.57193,-6.48074 h 43.794375 l 6.472034,12.34012 h -1.977325 v 0.87107 h 14.355195 v -0.87107 z m -71.892114,4.79087 a 1.7421352,1.7421352 0 1 1 1.742135,-1.74213 1.7421352,1.7421352 0 0 1 -1.742135,1.74213 z m 19.453844,3.19392 a 1.7421352,1.7421352 0 1 1 -1.742136,-1.74213 1.7421352,1.7421352 0 0 1 1.742136,1.74213 z m 12.049768,0 a 1.7421352,1.7421352 0 1 1 -1.742135,-1.74213 1.7421352,1.7421352 0 0 1 1.742135,1.74213 z m -31.503612,11.90459 a 1.7421352,1.7421352 0 1 1 1.742135,-1.74213 1.7421352,1.7421352 0 0 1 -1.742135,1.74213 z m 2.322847,-28.45488 a 1.7421352,1.7421352 0 1 1 1.742135,-1.74213 1.7421352,1.7421352 0 0 1 -1.742135,1.74213 z m 53.669379,-4.64569 H 21.967793 l -5.159623,5.99585 -1.486623,-1.85537 a 2.6132029,2.6132029 0 0 0 -1.721811,-3.77463 v -2.10798 h 54.165888 l 7.787342,14.95332 h -1.94248 z"
       id="path12"
       inkscape:connector-curvature="0"
       style="stroke:#ffffff;stroke-width:0.992;stroke-linejoin:miter;stroke-miterlimit:4;stroke-dasharray:none;stroke-opacity:1;paint-order:stroke fill markers;fill:#000000;fill-opacity:1" />
    <rect
       x="71.830612"
       y="271.31567"
       width="13.173445"
       height="0.87106764"
       id="rect14"
       style="stroke:#ffffff;stroke-width:0.992;stroke-linejoin:miter;stroke-miterlimit:4;stroke-dasharray:none;stroke-opacity:1;paint-order:stroke fill markers;fill:#000000;fill-opacity:1" />
    <rect
       x="74.423485"
       y="273.63852"
       width="9.7269211"
       height="0.87106764"
       id="rect16"
       style="stroke:#ffffff;stroke-width:0.992;stroke-linejoin:miter;stroke-miterlimit:4;stroke-dasharray:none;stroke-opacity:1;paint-order:stroke fill markers;fill:#000000;fill-opacity:1" />
    <rect
       x="75.730087"
       y="276.16748"
       width="8.4203196"
       height="0.87106764"
       id="rect18"
       style="stroke:#ffffff;stroke-width:0.992;stroke-linejoin:miter;stroke-miterlimit:4;stroke-dasharray:none;stroke-opacity:1;paint-order:stroke fill markers;fill:#000000;fill-opacity:1" />
    <rect
       x="-109.93768"
       y="255.95247"
       width="0.87106764"
       height="10.473136"
       transform="rotate(-37.39)"
       id="rect20"
       style="stroke:#ffffff;stroke-width:0.992;stroke-linejoin:miter;stroke-miterlimit:4;stroke-dasharray:none;stroke-opacity:1;paint-order:stroke fill markers;fill:#000000;fill-opacity:1" />
    <rect
       x="-111.97398"
       y="256.22296"
       width="0.87106764"
       height="10.473136"
       transform="rotate(-37.39)"
       id="rect22"
       style="stroke:#ffffff;stroke-width:0.992;stroke-linejoin:miter;stroke-miterlimit:4;stroke-dasharray:none;stroke-opacity:1;paint-order:stroke fill markers;fill:#000000;fill-opacity:1" />
    <rect
       x="73.987961"
       y="280.46185"
       width="0.87106764"
       height="13.542197"
       id="rect24"
       style="stroke:#ffffff;stroke-width:0.992;stroke-linejoin:miter;stroke-miterlimit:4;stroke-dasharray:none;stroke-opacity:1;paint-order:stroke fill markers;fill:#000000;fill-opacity:1" />
    <rect
       x="76.395004"
       y="278.57455"
       width="0.87106764"
       height="15.429511"
       id="rect26"
       style="stroke:#ffffff;stroke-width:0.992;stroke-linejoin:miter;stroke-miterlimit:4;stroke-dasharray:none;stroke-opacity:1;paint-order:stroke fill markers;fill:#000000;fill-opacity:1" />
    <rect
       x="78.71785"
       y="278.57455"
       width="0.87106764"
       height="15.429511"
       id="rect28"
       style="stroke:#ffffff;stroke-width:0.992;stroke-linejoin:miter;stroke-miterlimit:4;stroke-dasharray:none;stroke-opacity:1;paint-order:stroke fill markers;fill:#000000;fill-opacity:1" />
    <rect
       x="81.331055"
       y="278.57455"
       width="0.87106764"
       height="15.429511"
       id="rect30"
       style="stroke:#ffffff;stroke-width:0.992;stroke-linejoin:miter;stroke-miterlimit:4;stroke-dasharray:none;stroke-opacity:1;paint-order:stroke fill markers;fill:#000000;fill-opacity:1" />
    <path
       d="m 18.878407,282.00076 a 8.9487679,8.9487679 0 0 1 -3.925612,-0.9756 l -0.720083,2.90356 c 0.871068,0.4878 2.648046,0.9756 4.436639,0.9756 4.297266,0 6.294914,-2.22993 6.294914,-4.85476 0,-2.2067 -1.277565,-3.64686 -4.041754,-4.66892 -2.03249,-0.76653 -2.903557,-1.20788 -2.903557,-2.2067 0,-0.78977 0.74331,-1.50986 2.276389,-1.50986 a 7.3227751,7.3227751 0 0 1 3.251986,0.74332 l 0.789768,-2.83387 A 9.1578241,9.1578241 0 0 0 20.3418,268.78376 c -3.670098,0 -5.92326,2.03249 -5.92326,4.69215 0,2.27639 1.718907,3.71655 4.320495,4.6457 1.881507,0.65039 2.613204,1.20787 2.613204,2.18347 0.01161,1.02786 -0.847839,1.69568 -2.473832,1.69568 z"
       id="path32"
       inkscape:connector-curvature="0"
       style="stroke:#ffffff;stroke-width:0.992;stroke-linejoin:miter;stroke-miterlimit:4;stroke-dasharray:none;stroke-opacity:1;paint-order:stroke fill markers;fill:#000000;fill-opacity:1" />
    <polygon
       points="101.58,125 123.02,80.68 123.02,73 86.3,73 86.3,83 110.14,83 110.14,83.16 88.69,125 "
       id="polygon34"
       transform="matrix(0.29035586,0,0,0.29035586,2.9959405,248.37755)"
       style="stroke:#ffffff;stroke-width:3.41649726;stroke-linejoin:miter;stroke-miterlimit:4;stroke-dasharray:none;stroke-opacity:1;paint-order:stroke fill markers;fill:#000000;fill-opacity:1" />
    <polygon
       points="151.57,125 173.02,80.68 173.02,73 136.29,73 136.29,83 160.14,83 160.14,83.16 138.69,125 "
       id="polygon36"
       transform="matrix(0.29035586,0,0,0.29035586,2.9959405,248.37755)"
       style="stroke:#ffffff;stroke-width:3.41649726;stroke-linejoin:miter;stroke-miterlimit:4;stroke-dasharray:none;stroke-opacity:1;paint-order:stroke fill markers;fill:#000000;fill-opacity:1" />
  </g>
</svg>
