<?xml version="1.0" encoding="UTF-8" standalone="no"?>
<!-- Created with Inkscape (http://www.inkscape.org/) -->

<svg
   xmlns:dc="http://purl.org/dc/elements/1.1/"
   xmlns:cc="http://creativecommons.org/ns#"
   xmlns:rdf="http://www.w3.org/1999/02/22-rdf-syntax-ns#"
   xmlns:svg="http://www.w3.org/2000/svg"
   xmlns="http://www.w3.org/2000/svg"
   xmlns:sodipodi="http://sodipodi.sourceforge.net/DTD/sodipodi-0.dtd"
   xmlns:inkscape="http://www.inkscape.org/namespaces/inkscape"
   width="89mm"
   height="52mm"
   viewBox="0 0 89 52"
   version="1.1"
   id="svg51"
   inkscape:version="0.92.4 5da689c313, 2019-01-14"
   sodipodi:docname="logo_sticker_89_52.svg">
  <defs
     id="defs45" />
  <sodipodi:namedview
     id="base"
     pagecolor="#ffffff"
     bordercolor="#666666"
     borderopacity="1.0"
     inkscape:pageopacity="0.0"
     inkscape:pageshadow="2"
     inkscape:zoom="1.33"
     inkscape:cx="206.45161"
     inkscape:cy="40.118346"
     inkscape:document-units="mm"
     inkscape:current-layer="layer1"
     showgrid="false"
     inkscape:window-width="1920"
     inkscape:window-height="1016"
     inkscape:window-x="0"
     inkscape:window-y="27"
     inkscape:window-maximized="1" />
  <metadata
     id="metadata48">
    <rdf:RDF>
      <cc:Work
         rdf:about="">
        <dc:format>image/svg+xml</dc:format>
        <dc:type
           rdf:resource="http://purl.org/dc/dcmitype/StillImage" />
        <dc:title></dc:title>
      </cc:Work>
    </rdf:RDF>
  </metadata>
  <g
     inkscape:label="Ebene 1"
     inkscape:groupmode="layer"
     id="layer1"
     transform="translate(0,-245)">
    <path
       d="m 83.238005,268.78402 -10.43885,-20.52933 v -0.25468 H 3 v 45.48772 h 60.826907 v -35.6197 H 24.185058 l -11.744432,11.96398 a 2.6609392,2.6609392 0 1 0 0.585465,0.67035 L 24.56561,258.7433 h 38.3831 v 33.86623 H 3.878198 v -43.73132 h 68.250607 l 10.12269,19.90581 h -2.16037 L 70.74125,250.48824 H 6.073692 v 40.37368 0 0.25175 l 55.174239,0.18735 v -0.8782 0 -29.98167 H 25.979509 v 13.31933 h 2.195494 v 0.48008 a 2.6345934,2.6345934 0 1 0 0.878198,0 v -1.35828 h -2.195494 v -11.56294 h 13.538882 v 12.90951 a 2.6345934,2.6345934 0 1 0 0.878197,0.0234 v -12.93291 h 19.100803 v 25.32137 H 13.351025 a 2.6345934,2.6345934 0 1 0 0,0.8782 h 47.024564 v 2.90391 L 6.95189,290.24132 v -38.87489 h 63.25366 l 8.904925,17.41759 h -1.96424 L 68.838488,252.8301 H 12.806542 v 2.94489 a 2.6345934,2.6345934 0 1 0 2.049128,4.56955 l 2.049128,2.53214 5.617539,-6.53379 h 44.152857 l 6.525011,12.44113 h -1.993511 v 0.8782 h 14.472701 v -0.8782 z m -72.480591,4.83009 a 1.7563956,1.7563956 0 1 1 1.756395,-1.75639 1.7563956,1.7563956 0 0 1 -1.756395,1.75639 z m 19.613084,3.22006 a 1.7563956,1.7563956 0 1 1 -1.756396,-1.75639 1.7563956,1.7563956 0 0 1 1.756396,1.75639 z m 12.148402,0 a 1.7563956,1.7563956 0 1 1 -1.756395,-1.75639 1.7563956,1.7563956 0 0 1 1.756395,1.75639 z m -31.761486,12.00204 a 1.7563956,1.7563956 0 1 1 1.756395,-1.7564 1.7563956,1.7563956 0 0 1 -1.756395,1.7564 z m 2.341861,-28.6878 a 1.7563956,1.7563956 0 1 1 1.756395,-1.75639 1.7563956,1.7563956 0 0 1 -1.756395,1.75639 z m 54.108692,-4.68372 H 22.127148 l -5.201858,6.04493 -1.498791,-1.87056 a 2.6345934,2.6345934 0 0 0 -1.735905,-3.80553 V 253.7083 H 68.29986 l 7.851085,15.07572 h -1.95838 z"
       id="path12"
       inkscape:connector-curvature="0"
       style="stroke-width:0.2927326" />
    <rect
       x="72.398125"
       y="271.12589"
       width="13.281277"
       height="0.87819779"
       id="rect14"
       style="stroke-width:0.2927326" />
    <rect
       x="75.012222"
       y="273.46774"
       width="9.8065414"
       height="0.87819779"
       id="rect16"
       style="stroke-width:0.2927326" />
    <rect
       x="76.329514"
       y="276.01743"
       width="8.4892445"
       height="0.87819779"
       id="rect18"
       style="stroke-width:0.2927326" />
    <rect
       x="-109.39001"
       y="256.11984"
       width="0.87819779"
       height="10.558865"
       transform="rotate(-37.39)"
       id="rect20"
       style="stroke-width:0.2927326" />
    <rect
       x="-111.44297"
       y="256.39255"
       width="0.87819779"
       height="10.558865"
       transform="rotate(-37.39)"
       id="rect22"
       style="stroke-width:0.2927326" />
    <rect
       x="74.573128"
       y="280.34695"
       width="0.87819779"
       height="13.653048"
       id="rect24"
       style="stroke-width:0.2927326" />
    <rect
       x="76.999878"
       y="278.44418"
       width="0.87819779"
       height="15.55581"
       id="rect26"
       style="stroke-width:0.2927326" />
    <rect
       x="79.341736"
       y="278.44418"
       width="0.87819779"
       height="15.55581"
       id="rect28"
       style="stroke-width:0.2927326" />
    <rect
       x="81.976334"
       y="278.44418"
       width="0.87819779"
       height="15.55581"
       id="rect30"
       style="stroke-width:0.2927326" />
    <path
       d="m 19.012473,281.89845 a 9.0220186,9.0220186 0 0 1 -3.957745,-0.98359 l -0.725977,2.92733 c 0.878198,0.49179 2.669722,0.98358 4.472955,0.98358 4.332442,0 6.346442,-2.24818 6.346442,-4.89449 0,-2.22477 -1.288023,-3.67672 -4.074838,-4.70714 -2.049128,-0.77281 -2.927325,-1.21777 -2.927325,-2.22477 0,-0.79623 0.749395,-1.52221 2.295023,-1.52221 a 7.3827161,7.3827161 0 0 1 3.278605,0.7494 l 0.796233,-2.85707 a 9.232786,9.232786 0 0 0 -4.028001,-0.79623 c -3.70014,0 -5.971745,2.04913 -5.971745,4.73056 0,2.29502 1.732977,3.74697 4.355861,4.68372 1.896908,0.65572 2.634594,1.21776 2.634594,2.20135 0.01171,1.03627 -0.854779,1.70956 -2.494082,1.70956 z"
       id="path32"
       inkscape:connector-curvature="0"
       style="stroke-width:0.2927326" />
    <polygon
       points="88.69,125 101.58,125 123.02,80.68 123.02,73 86.3,73 86.3,83 110.14,83 110.14,83.16 "
       id="polygon34"
       transform="matrix(0.29273259,0,0,0.29273259,3,248.00001)" />
    <polygon
       points="138.69,125 151.57,125 173.02,80.68 173.02,73 136.29,73 136.29,83 160.14,83 160.14,83.16 "
       id="polygon36"
       transform="matrix(0.29273259,0,0,0.29273259,3,248.00001)" />
  </g>
</svg>
